<?xml version="1.0" encoding="utf-8"?>
<!-- Generator: Adobe Illustrator 16.0.4, SVG Export Plug-In . SVG Version: 6.00 Build 0)  -->
<!DOCTYPE svg PUBLIC "-//W3C//DTD SVG 1.1//EN" "http://www.w3.org/Graphics/SVG/1.1/DTD/svg11.dtd">
<svg version="1.1" id="レイヤー_1" xmlns="http://www.w3.org/2000/svg" xmlns:xlink="http://www.w3.org/1999/xlink" x="0px"
	 y="0px" width="595.3px" height="419.5px" viewBox="0 0 595.3 419.5" enable-background="new 0 0 595.3 419.5"
	 xml:space="preserve">
<g>
	<polyline fill="none" stroke="#000000" points="147.6,195.4 147.7,195.4 148.4,195.6 149.1,196 149.4,196.1 149.9,196.4 
		150.4,196.8 150.5,196.9 151.2,197.5 151.7,198.1 152.2,198.8 152.6,199.5 153,200.2 153.3,201 153.5,201.8 153.6,202.7 
		153.6,203.5 153.6,204.3 153.5,205.2 153.3,206 153,206.7 153,206.8 152.6,207.5 152.2,208.2 151.7,208.9 151.2,209.5 150.5,210.1 
		150.4,210.2 149.9,210.6 149.4,210.8 149.1,211 148.4,211.4 147.7,211.6 147.6,211.6 146.8,211.8 146,212 145.1,212 144.3,212 
		143.5,211.8 142.7,211.6 142,211.4 141.9,211.4 141.1,211 140.4,210.6 139.7,210.1 139.1,209.5 138.8,209.1 138.6,208.9 
		138.1,208.2 137.6,207.5 137.3,206.8 137.3,206.7 137,206 136.8,205.2 136.7,204.3 136.6,203.5 136.7,202.7 136.8,201.8 137,201 
		137.3,200.2 137.6,199.5 138.1,198.8 138.6,198.1 138.8,197.9 139.1,197.5 139.7,196.9 140.4,196.4 141.1,196 141.9,195.6 
		142,195.6 142.7,195.4 143.2,195.2 143.5,195.2 144.3,195 145.1,195 146,195 146.8,195.2 147,195.2 147.6,195.4 	"/>
	<polyline fill="none" stroke="#000000" points="144.7,207.7 145.1,207.8 145.6,207.7 146,207.7 146.4,207.6 146.8,207.4 
		147.1,207.3 147.5,207 147.7,206.9 147.8,206.8 147.8,206.8 148.2,206.5 148.4,206.2 148.7,205.9 148.9,205.5 149.1,205.1 
		149.2,204.7 149.3,204.3 149.4,203.9 149.4,203.9 149.4,203.5 149.4,203.1 149.3,202.7 149.2,202.3 149.1,201.9 148.9,201.5 
		148.7,201.1 148.6,201 148.4,200.8 148.2,200.5 147.8,200.2 147.7,200.1 147.5,200 147.1,199.7 146.8,199.6 146.4,199.4 146,199.3 
		145.6,199.3 145.1,199.2 144.7,199.3 144.6,199.3 144.3,199.3 143.9,199.4 143.5,199.6 143.1,199.7 142.8,200 142.4,200.2 
		142.1,200.5 142,200.6 141.9,200.8 141.7,201 141.6,201.1 141.4,201.5 141.2,201.9 141.1,202.3 141,202.7 140.9,203.1 140.9,203.5 
		140.9,203.9 140.9,203.9 141,204.3 141.1,204.7 141.2,205.1 141.4,205.5 141.6,205.9 141.9,206.2 142,206.4 142.1,206.5 
		142.4,206.8 142.5,206.8 142.8,207 143.1,207.3 143.5,207.4 143.9,207.6 144.3,207.7 144.7,207.7 	"/>
	<polyline fill="none" stroke="#000000" points="147.6,215.4 147.7,215.4 148.4,215.6 149.1,216 149.4,216.1 149.9,216.4 
		150.4,216.8 150.5,216.9 151.2,217.5 151.7,218.1 152.2,218.8 152.6,219.5 153,220.2 153.3,221 153.5,221.8 153.6,222.7 
		153.6,223.5 153.6,224.3 153.5,225.2 153.3,226 153,226.8 153,226.8 152.6,227.5 152.2,228.2 151.7,228.9 151.2,229.5 150.5,230.1 
		150.4,230.2 149.9,230.6 149.4,230.9 149.1,231 148.4,231.4 147.7,231.6 147.6,231.6 146.8,231.8 146,232 145.1,232 144.3,232 
		143.5,231.8 142.7,231.6 142,231.4 141.9,231.4 141.1,231 140.4,230.6 139.7,230.1 139.1,229.5 138.8,229.1 138.6,228.9 
		138.1,228.2 137.6,227.5 137.3,226.8 137.3,226.8 137,226 136.8,225.2 136.7,224.3 136.6,223.5 136.7,222.7 136.8,221.8 137,221 
		137.3,220.2 137.6,219.5 138.1,218.8 138.6,218.1 138.8,217.9 139.1,217.5 139.7,216.9 140.4,216.4 141.1,216 141.9,215.6 
		142,215.6 142.7,215.4 143.2,215.2 143.5,215.2 144.3,215 145.1,215 146,215 146.8,215.2 147,215.2 147.6,215.4 	"/>
	<polyline fill="none" stroke="#000000" points="144.7,227.7 145.1,227.8 145.6,227.7 146,227.7 146.4,227.6 146.8,227.4 
		147.1,227.3 147.5,227 147.7,226.9 147.8,226.8 147.8,226.8 148.2,226.5 148.4,226.2 148.7,225.9 148.9,225.5 149.1,225.1 
		149.2,224.7 149.3,224.3 149.4,223.9 149.4,223.9 149.4,223.5 149.4,223.1 149.3,222.7 149.2,222.3 149.1,221.9 148.9,221.5 
		148.7,221.1 148.6,221 148.4,220.8 148.2,220.5 147.8,220.2 147.7,220.1 147.5,220 147.1,219.7 146.8,219.6 146.4,219.4 146,219.3 
		145.6,219.3 145.1,219.2 144.7,219.3 144.6,219.3 144.3,219.3 143.9,219.4 143.5,219.6 143.1,219.7 142.8,220 142.4,220.2 
		142.1,220.5 142,220.6 141.9,220.8 141.7,221 141.6,221.1 141.4,221.5 141.2,221.9 141.1,222.3 141,222.7 140.9,223.1 140.9,223.5 
		140.9,223.9 140.9,223.9 141,224.3 141.1,224.7 141.2,225.1 141.4,225.5 141.6,225.9 141.9,226.2 142,226.4 142.1,226.5 
		142.4,226.8 142.5,226.8 142.8,227 143.1,227.3 143.5,227.4 143.9,227.6 144.3,227.7 144.7,227.7 	"/>
	<polyline fill="none" stroke="#000000" points="147.6,235.4 147.7,235.4 148.4,235.6 149.1,236 149.4,236.2 149.9,236.4 
		150.4,236.8 150.5,236.9 151.2,237.5 151.7,238.1 152.2,238.8 152.6,239.5 153,240.2 153.3,241 153.5,241.8 153.6,242.7 
		153.6,243.5 153.6,244.3 153.5,245.2 153.3,246 153,246.8 153,246.8 152.6,247.5 152.2,248.2 151.7,248.9 151.2,249.5 150.5,250.1 
		150.4,250.2 149.9,250.6 149.4,250.9 149.1,251 148.4,251.4 147.7,251.6 147.6,251.6 146.8,251.8 146,252 145.1,252 144.3,252 
		143.5,251.8 142.7,251.6 142,251.4 141.9,251.4 141.1,251 140.4,250.6 139.7,250.1 139.1,249.5 138.8,249.1 138.6,248.9 
		138.1,248.2 137.6,247.5 137.3,246.8 137.3,246.8 137,246 136.8,245.2 136.7,244.3 136.6,243.5 136.7,242.7 136.8,241.8 137,241 
		137.3,240.2 137.6,239.5 138.1,238.8 138.6,238.1 138.8,237.9 139.1,237.5 139.7,236.9 140.4,236.4 141.1,236 141.9,235.6 
		142,235.6 142.7,235.4 143.2,235.2 143.5,235.2 144.3,235 145.1,235 146,235 146.8,235.2 147,235.2 147.6,235.4 	"/>
	<polyline fill="none" stroke="#000000" points="144.7,247.7 145.1,247.8 145.6,247.7 146,247.7 146.4,247.6 146.8,247.4 
		147.1,247.3 147.5,247 147.7,246.9 147.8,246.8 147.8,246.8 148.2,246.5 148.4,246.2 148.7,245.9 148.9,245.5 149.1,245.1 
		149.2,244.7 149.3,244.3 149.4,243.9 149.4,243.9 149.4,243.5 149.4,243.1 149.3,242.7 149.2,242.3 149.1,241.9 148.9,241.5 
		148.7,241.1 148.6,241 148.4,240.8 148.2,240.5 147.8,240.2 147.7,240.1 147.5,240 147.1,239.7 146.8,239.6 146.4,239.4 146,239.3 
		145.6,239.3 145.1,239.2 144.7,239.3 144.6,239.3 144.3,239.3 143.9,239.4 143.5,239.6 143.1,239.7 142.8,240 142.4,240.2 
		142.1,240.5 142,240.6 141.9,240.8 141.7,241 141.6,241.1 141.4,241.5 141.2,241.9 141.1,242.3 141,242.7 140.9,243.1 140.9,243.5 
		140.9,243.9 140.9,243.9 141,244.3 141.1,244.7 141.2,245.1 141.4,245.5 141.6,245.9 141.9,246.2 142,246.4 142.1,246.5 
		142.4,246.8 142.5,246.8 142.8,247 143.1,247.3 143.5,247.4 143.9,247.6 144.3,247.7 144.7,247.7 	"/>
	<polyline fill="none" stroke="#000000" points="147.6,255.4 147.7,255.4 148.4,255.6 149.1,256 149.4,256.2 149.9,256.4 
		150.4,256.8 150.5,256.9 151.2,257.5 151.7,258.1 152.2,258.8 152.6,259.5 153,260.3 153.3,261 153.5,261.8 153.6,262.7 
		153.6,263.5 153.6,264.3 153.5,265.2 153.3,266 153,266.8 153,266.8 152.6,267.5 152.2,268.2 151.7,268.9 151.2,269.5 150.5,270.1 
		150.4,270.2 149.9,270.6 149.4,270.9 149.1,271 148.4,271.4 147.7,271.6 147.6,271.6 146.8,271.8 146,272 145.1,272 144.3,272 
		143.5,271.8 142.7,271.6 142,271.4 141.9,271.4 141.1,271 140.4,270.6 139.7,270.1 139.1,269.5 138.8,269.1 138.6,268.9 
		138.1,268.2 137.6,267.5 137.3,266.8 137.3,266.8 137,266 136.8,265.2 136.7,264.3 136.6,263.5 136.7,262.7 136.8,261.8 137,261 
		137.3,260.3 137.6,259.5 138.1,258.8 138.6,258.1 138.8,257.9 139.1,257.5 139.7,256.9 140.4,256.4 141.1,256 141.9,255.6 
		142,255.6 142.7,255.4 143.2,255.2 143.5,255.2 144.3,255 145.1,255 146,255 146.8,255.2 147,255.2 147.6,255.4 	"/>
	<polyline fill="none" stroke="#000000" points="144.7,267.7 145.1,267.8 145.6,267.7 146,267.7 146.4,267.6 146.8,267.4 
		147.1,267.3 147.5,267 147.7,266.9 147.8,266.8 147.8,266.8 148.2,266.5 148.4,266.2 148.7,265.9 148.9,265.5 149.1,265.1 
		149.2,264.7 149.3,264.3 149.4,263.9 149.4,263.9 149.4,263.5 149.4,263.1 149.3,262.7 149.2,262.3 149.1,261.9 148.9,261.5 
		148.7,261.1 148.6,261 148.4,260.8 148.2,260.5 147.8,260.2 147.7,260.1 147.5,260 147.1,259.8 146.8,259.6 146.4,259.4 146,259.3 
		145.6,259.3 145.1,259.2 144.7,259.3 144.6,259.3 144.3,259.3 143.9,259.4 143.5,259.6 143.1,259.8 142.8,260 142.4,260.2 
		142.1,260.5 142,260.6 141.9,260.8 141.7,261 141.6,261.1 141.4,261.5 141.2,261.9 141.1,262.3 141,262.7 140.9,263.1 140.9,263.5 
		140.9,263.9 140.9,263.9 141,264.3 141.1,264.7 141.2,265.1 141.4,265.5 141.6,265.9 141.9,266.2 142,266.4 142.1,266.5 
		142.4,266.8 142.5,266.8 142.8,267 143.1,267.3 143.5,267.4 143.9,267.6 144.3,267.7 144.7,267.7 	"/>
</g>
<polyline fill="none" stroke="#000000" points="76.1,410.7 76.1,403.6 55.4,403.6 55.4,410.7 38.2,410.7 34.7,410.7 34.7,403.6 
	14,403.6 14,375 14,360.5 6.9,360.5 6.9,346 14,346 14,331.6 6.9,331.6 6.9,317.3 6.9,317.1 14,310 117.5,310 124.6,317.1 
	124.6,317.3 124.6,324.9 124.6,332.7 117.5,332.7 117.5,348.3 124.6,348.3 124.6,363.9 117.5,363.9 117.5,379.5 124.6,379.5 
	124.6,395.1 117.5,395.1 117.5,403.6 96.8,403.6 96.8,410.7 76.1,410.7 "/>
<polyline fill="none" stroke="#000000" points="42.5,317.3 42.1,317.3 41.7,317.3 41.3,317.3 41,317.4 40.6,317.5 40.3,317.7 
	40,317.9 39.9,317.9 39.6,318.1 39.4,318.4 39.1,318.7 38.9,319 38.7,319.3 38.5,319.6 38.4,320 38.3,320.3 38.3,320.4 38.3,320.7 
	38.2,321.1 38.3,321.5 38.3,321.8 38.4,322.2 38.5,322.6 38.7,322.9 38.9,323.2 39.1,323.5 39.4,323.8 39.6,324.1 39.9,324.3 
	40,324.3 40.3,324.5 40.6,324.6 41,324.8 41.3,324.9 41.7,324.9 42.1,324.9 42.5,324.9 42.8,324.9 42.9,324.8 43.2,324.8 
	43.5,324.6 43.9,324.5 44.2,324.3 44.5,324.1 44.8,323.8 45,323.5 45.3,323.2 45.5,322.9 45.6,322.6 45.7,322.2 45.8,321.8 
	45.9,321.5 45.9,321.1 45.9,320.7 45.9,320.4 45.8,320.3 45.7,320 45.6,319.6 45.5,319.3 45.3,319 45,318.7 44.8,318.4 44.5,318.1 
	44.2,317.9 43.9,317.7 43.5,317.5 43.2,317.4 42.9,317.3 42.8,317.3 42.5,317.3 "/>
<polyline fill="none" stroke="#000000" points="305.8,180 290.2,180 290.2,187.1 290.2,192.8 290.2,199.9 305.8,199.9 305.8,243.8 
	325.6,243.8 325.6,199.9 341.2,199.9 341.2,192.8 341.2,187.1 341.2,180 325.6,180 325.6,136.1 305.8,136.1 305.8,180 "/>
<polyline fill="none" stroke="#000000" points="276,121.9 290.2,121.9 341.2,121.9 380.9,121.9 380.9,187.1 352.5,187.1 
	352.5,192.8 380.9,192.8 380.9,255.1 380.9,258 276,258 276,255.1 276,192.8 278.9,192.8 278.9,187.1 276,187.1 276,121.9 "/>
<polyline fill="none" stroke="#000000" points="437.6,39 444.7,39 444.7,4.3 501.4,4.3 502.7,4.3 505.6,4.3 507,4.3 539.6,4.3 
	590.7,55.3 590.7,59.5 590.7,73.7 590.7,75.1 590.7,85 590.7,90.7 590.7,97.8 590.7,104.9 590.7,107.7 576.5,107.7 576.5,121.9 
	565.2,121.9 536.8,121.9 536.8,107.7 502.8,107.7 501.4,107.7 491.5,107.7 491.5,121.9 451.8,121.9 451.8,107.7 444.7,107.7 
	444.7,104.9 444.7,85 444.7,73 437.6,73 437.6,39 "/>
<polyline fill="none" stroke="#000000" points="444.7,39 442.4,39 437.6,39 437.6,73 442.4,73 444.7,73 444.7,104.9 444.7,107.7 
	442.4,107.7 428.3,107.7 388,107.7 388,121.9 348.3,121.9 348.3,107.7 303.5,107.7 291.6,107.7 291.6,104.9 291.6,73 298.7,73 
	298.7,39 291.6,39 291.6,4.3 298.7,4.3 303.5,4.3 428.3,4.3 437.6,4.3 442.4,4.3 444.7,4.3 444.7,39 "/>
<polyline fill="none" stroke="#000000" points="485.8,121.9 485.8,129.8 485.8,177.2 485.8,187.1 457.4,187.1 457.4,191.3 
	457.4,192.8 457.4,192.8 485.8,192.8 485.8,202.7 485.8,208.3 485.8,215.4 485.8,222.5 485.8,229.6 485.8,236.7 485.8,243.8 
	485.8,254.5 485.8,257.9 380.9,257.9 380.9,254.5 380.9,243.8 380.9,240.9 380.9,236.7 380.9,233.9 380.9,229.6 380.9,226.8 
	380.9,222.5 380.9,219.7 380.9,215.4 380.9,212.6 380.9,208.3 380.9,205.5 380.9,202.7 380.9,192.8 383.7,192.8 383.7,192.8 
	383.7,191.3 383.7,188.5 383.7,187.1 383.7,187.1 380.9,187.1 380.9,177.2 380.9,174.3 380.9,171.5 380.9,167.2 380.9,164.4 
	380.9,160.2 380.9,157.3 380.9,153.1 380.9,150.2 380.9,146 380.9,143.1 380.9,138.9 380.9,136.1 380.9,129.8 380.9,121.9 
	485.8,121.9 "/>
<polyline fill="none" stroke="#000000" points="21,157 21,162 21,164.1 21,164.1 26,164.1 60.7,164.1 60.7,157 106.1,157 
	106.1,164.1 145.8,164.1 145.8,164.1 145.8,162 145.8,157 147.1,157 148.5,157.2 149.9,157.6 151.2,158 152.4,158.6 153.6,159.4 
	154.7,160.2 155.8,161.1 156.6,162 156.7,162.1 157.5,163.3 158.3,164.5 158.8,165.7 159.3,167 159.7,168.4 159.9,169.7 
	159.9,171.1 159.9,172.5 159.7,173.7 159.7,173.9 159.3,175.3 158.8,176.6 158.3,177.8 157.5,179 156.7,180.1 155.8,181.2 
	154.7,182.1 153.6,182.9 152.4,183.6 151.2,184.2 150.4,184.5 149.9,184.7 148.5,185 147.1,185.2 146.8,185.3 145.8,185.3 
	144.7,185.3 144.4,185.2 143,185 141.6,184.7 140.3,184.2 139.1,183.6 138.8,183.5 137.9,182.9 136.8,182.1 135.7,181.2 
	134.8,180.1 134,179 133.3,177.8 132.7,176.6 132.2,175.3 131.9,173.9 131.8,173.7 131.7,172.5 131.6,171.1 35.2,171.1 35.1,172.5 
	35,173.7 34.9,173.9 34.6,175.3 34.3,176 34.1,176.6 33.5,177.8 32.8,179 32,180.1 31.1,181.2 30,182.1 28.9,182.9 27.7,183.6 
	26.5,184.2 25.1,184.7 23.8,185 22.7,185.2 22.4,185.2 22.1,185.3 21,185.3 21,213.7 21,253.3 21,281.7 22.4,281.8 22.7,281.8 
	23.8,282 25.1,282.3 26.5,282.8 27.7,283.4 28.9,284.1 30,284.9 31.1,285.8 32,286.9 32.8,288 33.5,289.2 33.8,289.8 34.1,290.4 
	34.6,291.8 34.9,293.1 35.1,294.5 35.2,295.9 131.6,295.9 131.7,294.5 131.9,293.1 132.2,291.8 132.7,290.4 133.3,289.2 134,288 
	134.8,286.9 135.7,285.8 136.8,284.9 137.9,284.1 138.8,283.5 139.1,283.4 140.3,282.8 141.6,282.3 143,282 144.4,281.8 
	145.8,281.7 147.1,281.8 148.5,282 149.9,282.3 149.9,282.3 150.4,282.5 151.2,282.8 152.4,283.4 153.6,284.1 154.7,284.9 
	155.8,285.8 156.7,286.9 157.5,288 158.3,289.2 158.5,289.8 158.8,290.4 159.3,291.8 159.7,293.1 159.9,294.5 159.9,295.9 
	159.9,297.3 159.7,298.6 159.3,300 158.8,301.3 158.8,301.4 158.3,302.5 157.5,303.7 156.7,304.9 155.8,305.9 154.7,306.8 
	153.6,307.6 152.4,308.4 151.2,309 150.4,309.2 149.9,309.4 148.5,309.8 147.1,310 145.8,310 145.8,302.9 145.8,302.9 106.1,302.9 
	106.1,310 60.7,310 60.7,302.9 21,302.9 21,302.9 21,310 19.6,310 18.3,309.8 16.9,309.4 15.6,309 14.4,308.4 13.2,307.6 12,306.8 
	11,305.9 10.1,304.9 9.2,303.7 8.5,302.5 8,301.4 7.9,301.3 7.5,300.1 7.5,300 7.1,298.6 6.9,297.3 6.9,295.9 6.9,291 6.9,253.3 
	14,253.3 14,213.7 6.9,213.7 6.9,176 6.9,171.1 6.9,169.7 7.1,168.4 7.5,167 7.5,166.9 7.9,165.7 8.5,164.5 9.2,163.3 10.1,162.1 
	10.2,162 11,161.1 12,160.2 13.2,159.4 14.4,158.6 15.6,158 16.9,157.6 18.3,157.2 19.6,157 21,157 "/>
<polyline fill="none" stroke="#000000" points="535.4,180 535.4,136.2 535.4,136.1 515.5,136.1 515.5,136.2 515.5,180 500,180 
	500,187.1 500,192.8 500,199.9 515.5,199.9 515.5,243.8 535.4,243.8 535.4,199.9 551,199.9 551,192.8 551,187.1 551,180 535.4,180 
	"/>
<polyline fill="none" stroke="#000000" points="485.8,187.1 485.8,136.2 485.8,128.7 485.8,121.9 590.7,121.9 590.7,128.7 
	590.7,136.2 590.7,187.1 562.3,187.1 562.3,192.8 590.7,192.8 590.7,258 551,258 500,258 485.8,258 485.8,192.8 488.6,192.8 
	488.6,187.1 485.8,187.1 "/>
<polyline fill="none" stroke="#000000" points="244.9,121.9 244.9,107.7 228.3,107.7 199.5,107.7 199.5,121.9 177,121.9 
	159.8,121.9 159.8,107.7 145.6,107.7 145.6,55.3 196.7,4.3 228.3,4.3 235.9,4.3 291.6,4.3 291.6,39 298.7,39 298.7,73 291.6,73 
	291.6,76.1 291.6,107.7 284.5,107.7 284.5,121.9 244.9,121.9 "/>
<polyline fill="none" stroke="#000000" points="503.7,56.6 503.8,56.6 503.9,56.7 504,56.7 504.1,56.7 504.3,56.7 504.4,56.7 
	504.5,56.6 504.7,56.6 504.8,56.5 504.9,56.5 505,56.4 505.1,56.3 505.2,56.2 505.2,56.2 505.3,56.1 505.4,55.9 505.4,55.8 
	505.4,55.8 505.5,55.7 505.5,55.6 505.5,55.4 505.6,55.3 505.5,55.1 505.5,55 505.5,54.9 505.4,54.7 505.4,54.6 505.3,54.5 
	505.2,54.4 505.2,54.4 505.2,54.4 505.1,54.3 505,54.2 504.9,54.1 504.8,54 504.7,54 504.5,53.9 504.4,53.9 504.3,53.9 504.1,53.9 
	504,53.9 503.9,53.9 503.8,53.9 503.7,53.9 503.6,54 503.5,54 503.3,54.1 503.2,54.2 503.1,54.3 503,54.4 503,54.4 503,54.5 
	502.9,54.6 502.8,54.7 502.8,54.9 502.7,55 502.7,55.1 502.7,55.3 502.7,55.4 502.7,55.6 502.8,55.7 502.8,55.8 502.8,55.8 
	502.9,55.9 503,56.1 503,56.2 503.1,56.3 503.2,56.4 503.3,56.5 503.5,56.5 503.6,56.6 503.7,56.6 "/>
<polyline fill="none" stroke="#000000" points="503.7,49.5 503.8,49.6 503.9,49.6 504,49.6 504.1,49.6 504.3,49.6 504.4,49.6 
	504.5,49.5 504.7,49.5 504.8,49.4 504.9,49.4 505,49.3 505.1,49.2 505.2,49.1 505.2,49.1 505.3,49 505.4,48.9 505.4,48.7 
	505.5,48.6 505.5,48.6 505.5,48.5 505.5,48.3 505.6,48.2 505.5,48 505.5,47.9 505.5,47.8 505.4,47.6 505.4,47.5 505.3,47.4 
	505.2,47.3 505.2,47.3 505.1,47.2 505,47.1 504.9,47 504.8,46.9 504.7,46.9 504.5,46.8 504.4,46.8 504.3,46.8 504.1,46.8 504,46.8 
	503.9,46.8 503.8,46.8 503.7,46.8 503.6,46.9 503.5,46.9 503.3,47 503.2,47.1 503.2,47.1 503.1,47.2 503,47.3 503,47.4 502.9,47.5 
	502.8,47.6 502.8,47.8 502.7,47.9 502.7,48 502.7,48.2 502.7,48.3 502.7,48.5 502.8,48.6 502.8,48.6 502.8,48.7 502.9,48.9 503,49 
	503,49.1 503.1,49.2 503.2,49.3 503.3,49.4 503.5,49.4 503.6,49.5 503.7,49.5 "/>
<polyline fill="none" stroke="#000000" points="503.7,42.5 503.8,42.5 503.9,42.5 504,42.5 504.1,42.5 504.3,42.5 504.4,42.5 
	504.5,42.5 504.7,42.4 504.8,42.3 504.9,42.3 505,42.2 505.1,42.1 505.2,42 505.2,42 505.3,41.9 505.4,41.8 505.4,41.6 505.5,41.5 
	505.5,41.4 505.5,41.3 505.5,41.2 505.6,41.1 505.5,41 505.5,40.8 505.5,40.7 505.4,40.6 505.4,40.4 505.3,40.3 505.2,40.2 
	505.2,40.2 505.1,40.1 505,40 504.9,39.9 504.9,39.9 504.8,39.8 504.7,39.8 504.5,39.7 504.4,39.7 504.3,39.7 504.1,39.7 504,39.7 
	503.9,39.7 503.7,39.7 503.6,39.8 503.5,39.8 503.4,39.9 503.3,39.9 503.2,40 503.1,40.1 503,40.2 503,40.3 502.9,40.4 502.8,40.6 
	502.8,40.7 502.7,40.8 502.7,41 502.7,41.1 502.7,41.2 502.7,41.3 502.7,41.4 502.8,41.5 502.8,41.6 502.9,41.8 503,41.9 503,42 
	503.1,42.1 503.2,42.2 503.3,42.3 503.5,42.3 503.6,42.4 503.7,42.5 "/>
<polyline fill="none" stroke="#000000" points="503.7,35.4 503.8,35.4 503.9,35.4 504,35.4 504.1,35.4 504.3,35.4 504.4,35.4 
	504.5,35.4 504.7,35.3 504.8,35.3 504.9,35.2 505,35.1 505.1,35 505.2,34.9 505.2,34.9 505.3,34.8 505.4,34.7 505.4,34.6 
	505.5,34.4 505.5,34.3 505.5,34.1 505.6,34.1 505.6,34 505.5,33.9 505.5,33.7 505.5,33.6 505.4,33.5 505.4,33.3 505.3,33.2 
	505.2,33.1 505.2,33.1 505.1,33 505,32.9 504.9,32.8 504.8,32.8 504.7,32.7 504.5,32.7 504.4,32.6 504.3,32.6 504.1,32.6 504,32.6 
	503.9,32.6 503.8,32.6 503.7,32.7 503.6,32.7 503.5,32.8 503.3,32.8 503.2,32.9 503.1,33 503,33.1 503,33.2 502.9,33.3 502.9,33.3 
	502.8,33.5 502.8,33.6 502.7,33.7 502.7,33.9 502.7,34 502.7,34.1 502.7,34.1 502.7,34.3 502.8,34.4 502.8,34.6 502.9,34.7 
	503,34.8 503,34.9 503.1,35 503.2,35.1 503.3,35.2 503.5,35.3 503.6,35.3 503.7,35.4 "/>
<polyline fill="none" stroke="#000000" points="504,28.3 504.1,28.3 504.3,28.3 504.4,28.3 504.5,28.3 504.6,28.3 504.7,28.2 
	504.8,28.2 504.9,28.1 505,28 505.1,27.9 505.2,27.8 505.2,27.8 505.3,27.7 505.4,27.6 505.4,27.5 505.5,27.3 505.5,27.2 
	505.5,27.1 505.6,26.9 505.6,26.8 505.5,26.8 505.5,26.6 505.5,26.5 505.4,26.4 505.4,26.3 505.3,26.1 505.2,26 505.2,26 
	505.1,25.9 505,25.8 504.9,25.7 504.8,25.7 504.7,25.6 504.5,25.6 504.4,25.5 504.3,25.5 504.1,25.5 504,25.5 503.9,25.5 
	503.8,25.6 503.7,25.6 503.6,25.6 503.5,25.7 503.3,25.7 503.2,25.8 503.1,25.9 503,26 503,26.1 502.9,26.3 502.8,26.4 502.8,26.5 
	502.7,26.6 502.7,26.8 502.7,26.8 502.7,26.9 502.7,27.1 502.7,27.2 502.8,27.3 502.8,27.5 502.9,27.6 503,27.7 503,27.8 
	503.1,27.9 503.2,28 503.3,28.1 503.5,28.2 503.6,28.2 503.7,28.3 503.7,28.3 503.9,28.3 504,28.3 "/>
<polyline fill="none" stroke="#000000" points="503.7,21.2 503.8,21.2 503.9,21.2 504,21.2 504.1,21.3 504.3,21.2 504.4,21.2 
	504.5,21.2 504.7,21.1 504.8,21.1 504.9,21 505,20.9 505.1,20.8 505.2,20.7 505.2,20.7 505.3,20.6 505.4,20.5 505.4,20.4 
	505.5,20.2 505.5,20.1 505.5,20 505.6,19.8 505.5,19.7 505.5,19.6 505.5,19.4 505.4,19.3 505.4,19.2 505.3,19.1 505.2,18.9 
	505.2,18.9 505.1,18.8 505,18.7 504.9,18.7 504.8,18.6 504.7,18.5 504.5,18.5 504.4,18.4 504.3,18.4 504.1,18.4 504,18.4 
	503.9,18.4 503.8,18.5 503.7,18.5 503.6,18.5 503.5,18.6 503.3,18.7 503.2,18.7 503.1,18.8 503,18.9 503,19.1 502.9,19.2 
	502.8,19.3 502.8,19.4 502.7,19.6 502.7,19.7 502.7,19.8 502.7,20 502.7,20.1 502.8,20.2 502.8,20.4 502.9,20.5 503,20.6 503,20.7 
	503.1,20.8 503.2,20.9 503.3,21 503.3,21 503.5,21.1 503.6,21.1 503.7,21.2 "/>
<polyline fill="none" stroke="#000000" points="525.3,73.7 525.5,73.7 525.5,73.7 525.6,73.7 525.8,73.7 525.9,73.6 526,73.6 
	526.1,73.5 526.3,73.5 526.4,73.4 526.5,73.3 526.5,73.3 526.6,73.2 526.7,73.1 526.7,73 526.8,72.8 526.8,72.7 526.9,72.6 
	526.9,72.4 526.9,72.3 526.9,72.1 526.9,72 526.8,71.9 526.8,71.8 526.8,71.7 526.7,71.6 526.7,71.5 526.6,71.4 526.5,71.3 
	526.4,71.2 526.3,71.1 526.1,71 526,71 525.9,70.9 525.8,70.9 525.6,70.9 525.5,70.9 525.5,70.9 525.3,70.9 525.2,70.9 525.1,70.9 
	524.9,71 524.8,71 524.7,71.1 524.6,71.2 524.5,71.3 524.4,71.4 524.3,71.5 524.2,71.6 524.2,71.7 524.1,71.8 524.1,71.9 524.1,72 
	524.1,72.1 524.1,72.3 524.1,72.4 524.1,72.6 524.1,72.7 524.2,72.8 524.2,73 524.3,73.1 524.4,73.2 524.5,73.3 524.5,73.3 
	524.6,73.4 524.7,73.5 524.8,73.5 524.9,73.6 525.1,73.6 525.2,73.7 525.3,73.7 "/>
<polyline fill="none" stroke="#000000" points="518.3,73.7 518.3,73.7 518.4,73.7 518.5,73.7 518.7,73.7 518.8,73.6 518.9,73.6 
	519.1,73.5 519.2,73.5 519.3,73.4 519.4,73.3 519.4,73.3 519.5,73.2 519.6,73.1 519.6,73 519.7,72.8 519.7,72.7 519.7,72.7 
	519.8,72.6 519.8,72.4 519.8,72.3 519.8,72.1 519.8,72 519.7,71.9 519.7,71.9 519.7,71.8 519.7,71.7 519.6,71.6 519.6,71.5 
	519.5,71.4 519.4,71.3 519.3,71.2 519.2,71.1 519.1,71 518.9,71 518.8,70.9 518.7,70.9 518.5,70.9 518.4,70.9 518.3,70.9 
	518.3,70.9 518.1,70.9 518,70.9 517.8,71 517.7,71 517.6,71.1 517.5,71.2 517.4,71.3 517.3,71.4 517.2,71.5 517.1,71.6 517.1,71.7 
	517.1,71.8 517,71.9 517,72 517,72.1 517,72.3 517,72.4 517,72.6 517,72.7 517.1,72.8 517.1,73 517.2,73.1 517.3,73.2 517.4,73.3 
	517.4,73.3 517.5,73.4 517.6,73.5 517.7,73.5 517.8,73.6 518,73.6 518.1,73.7 518.3,73.7 "/>
<polyline fill="none" stroke="#000000" points="503.7,90.6 503.8,90.6 503.8,90.6 503.9,90.7 504.1,90.7 504.2,90.7 504.4,90.7 
	504.5,90.7 504.6,90.6 504.8,90.6 504.9,90.5 505,90.5 505.1,90.4 505.2,90.3 505.2,90.3 505.3,90.2 505.4,90.1 505.5,90 
	505.5,89.8 505.6,89.7 505.6,89.6 505.6,89.4 505.6,89.3 505.6,89.2 505.6,89.2 505.6,89 505.6,88.9 505.5,88.8 505.5,88.6 
	505.4,88.5 505.3,88.4 505.2,88.3 505.2,88.3 505.1,88.2 505,88.1 504.9,88 504.8,88 504.6,87.9 504.5,87.9 504.4,87.9 504.2,87.9 
	504.1,87.9 503.9,87.9 503.8,87.9 503.8,87.9 503.7,88 503.5,88 503.4,88.1 503.3,88.2 503.2,88.3 503.1,88.4 503,88.5 503,88.6 
	502.9,88.8 502.9,88.9 502.8,89 502.8,89.2 502.8,89.2 502.8,89.3 502.8,89.4 502.8,89.6 502.9,89.7 502.9,89.8 503,90 503,90.1 
	503.1,90.2 503.2,90.3 503.3,90.4 503.4,90.5 503.5,90.5 503.7,90.6 "/>
<polyline fill="none" stroke="#000000" points="503.7,97.7 503.8,97.7 503.8,97.7 503.9,97.8 504.1,97.8 504.2,97.8 504.4,97.8 
	504.5,97.8 504.6,97.7 504.8,97.7 504.9,97.6 505,97.6 505.1,97.5 505.2,97.4 505.2,97.4 505.3,97.3 505.4,97.2 505.5,97.1 
	505.5,96.9 505.6,96.8 505.6,96.7 505.6,96.5 505.6,96.5 505.6,96.4 505.6,96.2 505.6,96.1 505.6,96 505.5,95.8 505.5,95.7 
	505.4,95.6 505.3,95.5 505.2,95.4 505.2,95.4 505.1,95.3 505,95.2 504.9,95.1 504.8,95.1 504.6,95 504.6,95 504.5,95 504.4,95 
	504.2,95 504.1,95 503.9,95 503.8,95 503.8,95 503.8,95 503.7,95.1 503.5,95.1 503.4,95.2 503.3,95.3 503.2,95.4 503.1,95.5 
	503,95.6 503,95.7 502.9,95.8 502.9,96 502.8,96.1 502.8,96.2 502.8,96.4 502.8,96.5 502.8,96.5 502.8,96.7 502.9,96.8 502.9,96.9 
	503,97.1 503,97.2 503.1,97.3 503.2,97.4 503.3,97.5 503.4,97.6 503.5,97.6 503.7,97.7 "/>
<polyline fill="none" stroke="#000000" points="503.7,104.8 503.8,104.8 503.8,104.8 503.9,104.9 504.1,104.9 504.1,104.9 
	504.2,104.9 504.3,104.9 504.4,104.9 504.5,104.9 504.6,104.8 504.8,104.8 504.9,104.7 505,104.6 505.1,104.6 505.2,104.5 
	505.2,104.5 505.3,104.4 505.4,104.3 505.5,104.1 505.5,104 505.6,103.9 505.6,103.7 505.6,103.7 505.6,103.6 505.6,103.5 
	505.6,103.3 505.6,103.2 505.6,103.1 505.5,102.9 505.5,102.8 505.4,102.7 505.3,102.6 505.2,102.5 505.2,102.5 505.1,102.4 
	505,102.3 504.9,102.2 504.8,102.2 504.6,102.1 504.5,102.1 504.4,102.1 504.2,102.1 504.1,102.1 503.9,102.1 503.8,102.1 
	503.8,102.1 503.7,102.2 503.5,102.2 503.4,102.3 503.4,102.3 503.3,102.4 503.2,102.5 503.1,102.6 503,102.7 503,102.8 
	502.9,102.9 502.9,103.1 502.8,103.2 502.8,103.3 502.8,103.5 502.8,103.6 502.8,103.7 502.8,103.7 502.9,103.9 502.9,104 
	503,104.1 503,104.3 503.1,104.4 503.2,104.5 503.3,104.6 503.4,104.6 503.5,104.7 503.7,104.8 "/>
<polyline fill="none" stroke="#000000" points="489.2,73.5 489.3,73.5 489.4,73.5 489.5,73.6 489.6,73.6 489.8,73.7 489.9,73.7 
	490,73.7 490.2,73.7 490.3,73.7 490.4,73.6 490.6,73.6 490.7,73.5 490.7,73.5 490.8,73.5 490.9,73.4 491,73.3 491.1,73.3 
	491.1,73.2 491.2,73.1 491.3,73 491.3,72.8 491.4,72.7 491.4,72.6 491.4,72.4 491.5,72.3 491.4,72.1 491.4,72 491.4,71.9 
	491.4,71.8 491.3,71.7 491.3,71.6 491.2,71.5 491.1,71.4 491,71.3 490.9,71.2 490.8,71.1 490.7,71 490.7,71 490.6,71 490.4,70.9 
	490.3,70.9 490.2,70.9 490,70.9 489.9,70.9 489.8,70.9 489.6,70.9 489.5,71 489.4,71 489.3,71.1 489.2,71.1 489.1,71.2 489,71.3 
	488.9,71.4 488.9,71.5 488.8,71.6 488.7,71.7 488.7,71.8 488.7,71.9 488.6,72 488.6,72.1 488.6,72.3 488.6,72.4 488.6,72.6 
	488.7,72.7 488.7,72.8 488.8,73 488.9,73.1 488.9,73.2 489,73.3 489,73.3 489.1,73.4 489.2,73.5 "/>
<polyline fill="none" stroke="#000000" points="481.9,73.3 482,73.3 482,73.4 482.2,73.5 482.3,73.5 482.4,73.6 482.5,73.6 
	482.7,73.7 482.8,73.7 482.9,73.7 483.1,73.7 483.2,73.7 483.4,73.6 483.5,73.6 483.5,73.6 483.6,73.5 483.7,73.5 483.8,73.4 
	483.9,73.3 484,73.3 484,73.2 484.1,73.1 484.2,73 484.3,72.8 484.3,72.7 484.3,72.6 484.4,72.4 484.4,72.3 484.4,72.1 484.3,72 
	484.3,71.9 484.3,71.8 484.3,71.7 484.2,71.6 484.1,71.5 484,71.4 483.9,71.3 483.8,71.2 483.7,71.1 483.6,71 483.5,71 483.5,71 
	483.4,70.9 483.2,70.9 483.1,70.9 482.9,70.9 482.8,70.9 482.7,70.9 482.5,70.9 482.4,71 482.3,71 482.2,71.1 482,71.2 482,71.2 
	481.9,71.3 481.9,71.4 481.8,71.5 481.7,71.6 481.6,71.7 481.6,71.8 481.6,71.9 481.6,72 481.5,72.1 481.5,72.3 481.5,72.4 
	481.6,72.6 481.6,72.7 481.6,72.8 481.7,73 481.8,73.1 481.9,73.2 481.9,73.3 "/>
<polyline fill="none" stroke="#000000" points="16.9,171 16.9,171.1 16.9,171.5 16.9,171.9 17,172.4 17.1,172.8 17.2,173.2 
	17.4,173.6 17.4,173.7 17.7,174 17.9,174.4 18.2,174.7 18.5,175 18.9,175.3 19.3,175.5 19.7,175.7 20.1,175.8 20.5,175.9 21,176 
	21,176 21.4,176 21.9,176 22.3,175.9 22.7,175.8 22.8,175.8 23.2,175.7 23.6,175.5 24,175.3 24.3,175 24.6,174.7 24.9,174.4 
	25.2,174 25.4,173.7 25.4,173.6 25.6,173.2 25.8,172.8 25.9,172.4 26,171.9 26,171.5 26,171.1 26,171 25.9,170.7 25.9,170.6 
	25.8,170.2 25.6,169.7 25.4,169.3 25.2,169 24.9,168.6 24.6,168.3 24.3,168 24.1,167.8 24,167.7 23.6,167.5 23.2,167.3 22.8,167.1 
	22.7,167.1 22.3,167 21.9,167 21.4,166.9 21,167 21,167 20.5,167 20.1,167.1 19.7,167.3 19.3,167.5 18.9,167.7 18.7,167.8 18.5,168 
	18.2,168.3 17.9,168.6 17.7,169 17.4,169.3 17.2,169.7 17.1,170.2 17,170.6 17,170.7 16.9,171 "/>
<polyline fill="none" stroke="#000000" points="231.7,76.1 232.1,76.1 232.5,76.1 232.9,76 233.2,76 233.6,75.8 233.6,75.8 
	233.9,75.7 234.2,75.5 234.5,75.2 234.8,75 235.1,74.7 235.1,74.7 235.3,74.4 235.5,74.1 235.6,73.8 235.8,73.4 235.9,73 
	235.9,72.7 235.9,72.3 235.9,71.9 235.9,71.8 235.9,71.5 235.8,71.2 235.6,70.8 235.5,70.5 235.3,70.2 235.1,69.9 234.8,69.6 
	234.5,69.3 234.2,69.1 233.9,68.9 233.9,68.9 233.6,68.8 233.6,68.7 233.2,68.6 232.9,68.5 232.5,68.5 232.1,68.4 231.7,68.5 
	231.4,68.5 231,68.6 230.6,68.7 230.3,68.9 230.3,68.9 230,69.1 229.7,69.3 229.4,69.6 229.1,69.9 228.9,70.2 228.7,70.5 
	228.6,70.8 228.4,71.2 228.3,71.5 228.3,71.8 228.3,71.9 228.3,72.3 228.3,72.7 228.3,73 228.4,73.4 228.6,73.8 228.7,74.1 
	228.9,74.4 229.1,74.7 229.1,74.7 229.4,75 229.7,75.2 230,75.5 230.3,75.7 230.6,75.8 231,76 231.4,76 231.7,76.1 "/>
<polyline fill="none" stroke="#000000" points="21,300 21.4,300.1 21.9,300 22.3,300 22.7,299.9 22.8,299.9 23.2,299.7 23.6,299.5 
	24,299.3 24.3,299 24.6,298.7 24.9,298.4 25.2,298 25.4,297.7 25.6,297.3 25.8,296.8 25.9,296.4 26,296 26,295.9 26,295.6 26,295.5 
	26,295.1 25.9,294.6 25.8,294.2 25.6,293.8 25.4,293.4 25.2,293 24.9,292.6 24.6,292.3 24.3,292 24,291.7 23.6,291.5 23.2,291.3 
	22.8,291.2 22.7,291.2 22.3,291.1 21.9,291 21.4,291 21,291 21,291 20.5,291.1 20.1,291.2 19.8,291.3 19.7,291.3 19.3,291.5 
	18.9,291.7 18.5,292 18.2,292.3 17.9,292.6 17.7,293 17.4,293.4 17.2,293.8 17.1,294.2 17,294.6 16.9,295.1 16.9,295.5 16.9,295.6 
	16.9,295.9 16.9,296 17,296.4 17.1,296.8 17.2,297.3 17.4,297.7 17.7,298 17.9,298.4 18.2,298.7 18.5,299 18.9,299.3 19.3,299.5 
	19.7,299.7 19.8,299.8 20.1,299.9 20.5,300 21,300 21,300 "/>
<polyline fill="none" stroke="#000000" points="400.6,190.5 400.7,190.4 400.7,190.3 400.7,190.2 400.7,190.1 400.7,189.9 
	400.7,189.8 400.7,189.6 400.7,189.5 400.6,189.4 400.6,189.3 400.5,189.1 400.4,189 400.3,188.9 400.3,188.9 400.2,188.8 
	400.1,188.7 400,188.7 400,188.7 399.9,188.6 399.7,188.6 399.6,188.5 399.5,188.5 399.3,188.5 399.2,188.5 399,188.5 398.9,188.6 
	398.8,188.6 398.7,188.7 398.5,188.7 398.5,188.8 398.4,188.8 398.3,188.9 398.2,189 398.1,189.1 398.1,189.3 398,189.4 398,189.5 
	397.9,189.6 397.9,189.8 397.9,189.9 397.9,190.1 397.9,190.2 398,190.3 398,190.4 398,190.5 398.1,190.6 398.1,190.7 398.2,190.8 
	398.3,190.9 398.4,191 398.5,191.1 398.5,191.1 398.7,191.2 398.8,191.2 398.9,191.3 399,191.3 399.2,191.3 399.3,191.3 
	399.5,191.3 399.6,191.3 399.7,191.3 399.9,191.2 400,191.2 400,191.2 400.1,191.1 400.2,191 400.3,190.9 400.4,190.8 400.5,190.7 
	400.6,190.6 400.6,190.5 "/>
<polyline fill="none" stroke="#000000" points="407.7,190.5 407.7,190.4 407.8,190.3 407.8,190.2 407.8,190.1 407.8,189.9 
	407.8,189.8 407.8,189.6 407.8,189.5 407.7,189.4 407.7,189.3 407.6,189.1 407.5,189 407.4,188.9 407.3,188.8 407.2,188.8 
	407.2,188.7 407.1,188.7 407,188.6 406.8,188.6 406.7,188.5 406.6,188.5 406.4,188.5 406.3,188.5 406.1,188.5 406,188.6 
	405.9,188.6 405.8,188.7 405.7,188.7 405.6,188.7 405.5,188.8 405.4,188.9 405.4,188.9 405.3,189 405.2,189.1 405.2,189.3 
	405.1,189.4 405.1,189.5 405,189.6 405,189.8 405,189.9 405,190.1 405,190.2 405.1,190.3 405.1,190.4 405.1,190.5 405.2,190.6 
	405.2,190.7 405.3,190.8 405.4,190.9 405.5,191 405.6,191.1 405.7,191.2 405.8,191.2 405.9,191.2 406,191.3 406.1,191.3 
	406.3,191.3 406.4,191.3 406.6,191.3 406.7,191.3 406.8,191.3 407,191.2 407.1,191.2 407.2,191.1 407.2,191.1 407.3,191 
	407.4,190.9 407.5,190.8 407.6,190.7 407.7,190.6 407.7,190.5 "/>
<polyline fill="none" stroke="#000000" points="422,173 422,172.9 422,172.8 422,172.6 421.9,172.5 421.9,172.4 421.8,172.2 
	421.8,172.1 421.7,172.1 421.7,172 421.6,171.9 421.5,171.8 421.4,171.7 421.3,171.7 421.1,171.6 421,171.6 420.9,171.5 
	420.7,171.5 420.6,171.5 420.5,171.5 420.3,171.5 420.3,171.5 420.2,171.6 420,171.6 419.9,171.7 419.8,171.7 419.7,171.8 
	419.6,171.9 419.5,172 419.4,172.1 419.3,172.2 419.3,172.2 419.3,172.4 419.2,172.5 419.2,172.6 419.2,172.8 419.2,172.9 
	419.2,173 419.2,173 419.2,173.2 419.2,173.3 419.3,173.5 419.3,173.6 419.4,173.7 419.5,173.8 419.6,173.9 419.7,174 419.8,174.1 
	419.9,174.2 420,174.2 420.2,174.3 420.3,174.3 420.3,174.3 420.5,174.3 420.6,174.3 420.7,174.3 420.9,174.3 421,174.3 
	421.1,174.2 421.3,174.2 421.4,174.1 421.5,174 421.6,173.9 421.7,173.8 421.7,173.7 421.8,173.7 421.8,173.6 421.9,173.5 
	421.9,173.3 422,173.2 422,173 422,173 "/>
<polyline fill="none" stroke="#000000" points="421,167.2 421,167.2 421.1,167.1 421.3,167.1 421.4,167 421.5,166.9 421.6,166.8 
	421.7,166.7 421.8,166.6 421.8,166.5 421.9,166.4 421.9,166.2 422,166.1 422,166 422,165.8 422,165.7 422,165.7 422,165.5 
	421.9,165.4 421.9,165.3 421.8,165.2 421.8,165 421.7,165 421.7,164.9 421.6,164.8 421.5,164.7 421.4,164.6 421.3,164.6 
	421.1,164.5 421,164.5 420.9,164.4 420.7,164.4 420.6,164.4 420.5,164.4 420.3,164.4 420.3,164.4 420.2,164.5 420,164.5 
	419.9,164.6 419.8,164.6 419.7,164.7 419.6,164.8 419.5,164.9 419.4,165 419.3,165.2 419.3,165.3 419.2,165.4 419.2,165.5 
	419.2,165.7 419.2,165.7 419.2,165.8 419.2,166 419.2,166.1 419.2,166.2 419.3,166.4 419.3,166.5 419.4,166.6 419.5,166.7 
	419.6,166.8 419.7,166.9 419.8,167 419.9,167.1 420,167.1 420.2,167.2 420.2,167.2 420.3,167.2 420.3,167.2 420.5,167.2 
	420.6,167.2 420.7,167.2 420.9,167.2 421,167.2 "/>
<polyline fill="none" stroke="#000000" points="422,158.9 422,158.7 422,158.6 422,158.5 422,158.5 421.9,158.3 421.9,158.2 
	421.8,158.1 421.8,158 421.7,157.9 421.7,157.8 421.6,157.7 421.5,157.6 421.4,157.6 421.3,157.5 421.1,157.4 421,157.4 
	420.9,157.3 420.7,157.3 420.6,157.3 420.5,157.3 420.3,157.3 420.3,157.4 420.2,157.4 420,157.4 419.9,157.5 419.8,157.6 
	419.7,157.6 419.6,157.7 419.5,157.8 419.4,158 419.3,158.1 419.3,158.2 419.2,158.3 419.2,158.5 419.2,158.5 419.2,158.6 
	419.2,158.7 419.2,158.9 419.2,159 419.2,159.2 419.3,159.3 419.3,159.4 419.4,159.5 419.5,159.6 419.6,159.7 419.7,159.8 
	419.8,159.9 419.9,160 420,160 420.2,160.1 420.3,160.1 420.3,160.1 420.5,160.1 420.6,160.2 420.7,160.1 420.9,160.1 421,160.1 
	421.1,160 421.3,160 421.4,159.9 421.5,159.8 421.6,159.7 421.7,159.6 421.7,159.6 421.8,159.5 421.8,159.4 421.9,159.3 
	421.9,159.2 422,159 422,158.9 "/>
<polyline fill="none" stroke="#000000" points="421.5,152.7 421.6,152.7 421.6,152.7 421.7,152.5 421.8,152.4 421.8,152.3 
	421.9,152.2 421.9,152.1 422,151.9 422,151.8 422,151.6 422,151.5 422,151.4 421.9,151.2 421.9,151.2 421.9,151.1 421.8,151 
	421.8,150.9 421.7,150.8 421.7,150.8 421.6,150.6 421.5,150.6 421.4,150.5 421.3,150.4 421.1,150.3 421,150.3 420.9,150.3 
	420.7,150.2 420.6,150.2 420.5,150.2 420.3,150.3 420.3,150.3 420.2,150.3 420,150.3 419.9,150.4 419.8,150.5 419.7,150.6 
	419.6,150.6 419.5,150.8 419.4,150.9 419.3,151 419.3,151.1 419.2,151.2 419.2,151.2 419.2,151.4 419.2,151.5 419.2,151.6 
	419.2,151.8 419.2,151.9 419.2,152.1 419.3,152.2 419.3,152.3 419.4,152.4 419.5,152.5 419.6,152.7 419.6,152.7 419.7,152.7 
	419.8,152.8 419.9,152.9 420,153 420.2,153 420.3,153 420.3,153 420.5,153.1 420.6,153.1 420.7,153.1 420.9,153 421,153 421.1,153 
	421.3,152.9 421.4,152.8 421.5,152.7 "/>
<polyline fill="none" stroke="#000000" points="421.7,145.5 421.7,145.4 421.8,145.3 421.8,145.2 421.9,145.1 421.9,145 422,144.8 
	422,144.7 422,144.6 422,144.4 422,144.3 421.9,144.2 421.9,144 421.9,143.9 421.8,143.9 421.8,143.8 421.7,143.7 421.7,143.7 
	421.6,143.6 421.5,143.5 421.4,143.4 421.3,143.3 421.1,143.3 421,143.2 420.9,143.2 420.7,143.2 420.6,143.1 420.5,143.2 
	420.3,143.2 420.3,143.2 420.2,143.2 420,143.3 419.9,143.3 419.8,143.4 419.7,143.5 419.6,143.6 419.5,143.7 419.4,143.8 
	419.3,143.9 419.3,143.9 419.3,144 419.2,144.2 419.2,144.3 419.2,144.4 419.2,144.6 419.2,144.7 419.2,144.8 419.2,145 
	419.3,145.1 419.3,145.2 419.4,145.3 419.4,145.4 419.5,145.5 419.6,145.6 419.7,145.7 419.8,145.7 419.9,145.8 420,145.9 
	420.2,145.9 420.3,145.9 420.3,146 420.5,146 420.6,146 420.7,146 420.9,146 421,145.9 421.1,145.9 421.3,145.8 421.4,145.7 
	421.5,145.7 421.6,145.6 421.7,145.5 "/>
<polyline fill="none" stroke="#000000" points="421.8,138.3 421.8,138.1 421.8,138.1 421.9,138 421.9,137.9 422,137.8 422,137.6 
	422,137.5 422,137.3 422,137.2 421.9,137.1 421.9,136.9 421.8,136.8 421.8,136.7 421.8,136.7 421.7,136.6 421.6,136.5 421.5,136.4 
	421.4,136.3 421.3,136.2 421.1,136.2 421,136.1 420.9,136.1 420.7,136.1 420.6,136.1 420.5,136.1 420.3,136.1 420.3,136.1 
	420.2,136.1 420,136.2 419.9,136.2 419.8,136.3 419.7,136.4 419.6,136.5 419.5,136.6 419.4,136.7 419.4,136.7 419.3,136.8 
	419.3,136.9 419.2,137.1 419.2,137.2 419.2,137.3 419.2,137.5 419.2,137.6 419.2,137.8 419.2,137.9 419.3,138 419.3,138.1 
	419.3,138.1 419.4,138.3 419.5,138.4 419.6,138.5 419.7,138.6 419.8,138.7 419.9,138.7 420,138.8 420.2,138.8 420.3,138.9 
	420.3,138.9 420.5,138.9 420.6,138.9 420.7,138.9 420.9,138.9 421,138.8 421.1,138.8 421.3,138.7 421.4,138.7 421.5,138.6 
	421.6,138.5 421.7,138.4 421.8,138.3 "/>
<polyline fill="none" stroke="#000000" points="436.1,190.5 436.1,190.4 436.1,190.3 436.2,190.2 436.2,190.1 436.2,189.9 
	436.2,189.8 436.2,189.6 436.1,189.5 436.1,189.4 436,189.3 435.9,189.1 435.9,189 435.8,188.9 435.8,188.9 435.7,188.8 
	435.6,188.7 435.4,188.7 435.3,188.6 435.2,188.6 435,188.5 434.9,188.5 434.8,188.5 434.8,188.5 434.6,188.5 434.5,188.5 
	434.4,188.6 434.2,188.6 434.1,188.7 434,188.7 433.9,188.8 433.8,188.9 433.7,188.9 433.7,189 433.6,189.1 433.5,189.3 
	433.5,189.4 433.4,189.5 433.4,189.6 433.4,189.8 433.3,189.9 433.4,190.1 433.4,190.2 433.4,190.3 433.4,190.4 433.5,190.5 
	433.5,190.6 433.6,190.7 433.7,190.8 433.8,190.9 433.9,191 434,191.1 434.1,191.2 434.2,191.2 434.4,191.3 434.5,191.3 
	434.6,191.3 434.8,191.3 434.8,191.3 434.9,191.3 435,191.3 435.2,191.3 435.3,191.2 435.4,191.2 435.6,191.1 435.7,191 
	435.8,190.9 435.9,190.8 435.9,190.7 436,190.6 436.1,190.5 "/>
<polyline fill="none" stroke="#000000" points="443.2,190.5 443.2,190.4 443.2,190.3 443.2,190.2 443.3,190.1 443.3,189.9 
	443.3,189.8 443.2,189.6 443.2,189.5 443.2,189.4 443.1,189.3 443,189.1 443,189 442.9,188.9 442.9,188.9 442.8,188.8 442.6,188.7 
	442.5,188.7 442.4,188.6 442.3,188.6 442.1,188.5 442.1,188.5 442,188.5 441.9,188.5 441.7,188.5 441.6,188.5 441.4,188.6 
	441.3,188.6 441.2,188.7 441.1,188.7 441,188.8 440.9,188.9 440.8,189 440.7,189.1 440.6,189.3 440.6,189.3 440.5,189.4 
	440.5,189.5 440.5,189.6 440.4,189.8 440.4,189.9 440.4,190.1 440.5,190.2 440.5,190.3 440.5,190.5 440.6,190.6 440.6,190.6 
	440.7,190.7 440.8,190.8 440.9,190.9 441,191 441.1,191.1 441.2,191.2 441.3,191.2 441.4,191.3 441.6,191.3 441.7,191.3 
	441.9,191.3 442,191.3 442.1,191.3 442.1,191.3 442.3,191.3 442.4,191.2 442.5,191.2 442.6,191.1 442.8,191 442.9,190.9 443,190.8 
	443,190.7 443.1,190.6 443.2,190.5 "/>
<polyline fill="none" stroke="#000000" points="421.8,207.8 421.8,207.8 421.8,207.7 421.9,207.6 422,207.5 422,207.3 422.1,207.2 
	422.1,207.1 422.1,206.9 422.1,206.8 422.1,206.7 422,206.5 422,206.4 422,206.4 421.9,206.3 421.8,206.1 421.8,206 421.7,206 
	421.7,205.9 421.6,205.8 421.5,205.8 421.3,205.7 421.2,205.6 421.1,205.6 420.9,205.5 420.8,205.5 420.7,205.5 420.5,205.5 
	420.4,205.5 420.3,205.6 420.3,205.6 420.1,205.6 420,205.7 419.9,205.8 419.8,205.8 419.7,205.9 419.6,206 419.5,206.1 
	419.4,206.3 419.4,206.4 419.4,206.4 419.3,206.5 419.3,206.7 419.3,206.8 419.2,206.9 419.3,207.1 419.3,207.2 419.3,207.3 
	419.4,207.5 419.4,207.6 419.5,207.7 419.6,207.8 419.6,207.8 419.7,207.9 419.8,208 419.9,208.1 420,208.2 420.1,208.2 
	420.3,208.3 420.3,208.3 420.4,208.3 420.5,208.3 420.7,208.3 420.8,208.3 420.9,208.3 421.1,208.3 421.2,208.2 421.3,208.2 
	421.5,208.1 421.6,208 421.7,207.9 421.8,207.8 "/>
<polyline fill="none" stroke="#000000" points="421.6,215.1 421.6,215.1 421.7,215 421.8,214.9 421.8,214.8 421.9,214.7 422,214.6 
	422,214.4 422.1,214.3 422.1,214.2 422.1,214 422.1,213.9 422.1,213.7 422,213.6 422,213.6 422,213.5 421.9,213.3 421.8,213.2 
	421.8,213.1 421.7,213.1 421.7,213 421.6,212.9 421.5,212.8 421.3,212.8 421.2,212.7 421.1,212.7 420.9,212.6 420.8,212.6 
	420.7,212.6 420.5,212.6 420.4,212.6 420.3,212.7 420.3,212.7 420.1,212.7 420,212.8 419.9,212.8 419.8,212.9 419.7,213 
	419.6,213.1 419.5,213.2 419.4,213.3 419.4,213.5 419.3,213.6 419.3,213.6 419.3,213.7 419.3,213.9 419.2,214 419.3,214.2 
	419.3,214.3 419.3,214.4 419.4,214.6 419.4,214.7 419.5,214.8 419.6,214.9 419.7,215 419.7,215.1 419.8,215.1 419.9,215.2 
	420,215.3 420.1,215.3 420.3,215.4 420.3,215.4 420.4,215.4 420.5,215.4 420.7,215.4 420.8,215.4 420.9,215.4 421.1,215.4 
	421.2,215.3 421.3,215.3 421.5,215.2 421.6,215.1 "/>
<polyline fill="none" stroke="#000000" points="421.3,222.4 421.4,222.3 421.5,222.3 421.6,222.2 421.7,222.1 421.8,222 
	421.8,221.9 421.9,221.8 422,221.6 422,221.5 422.1,221.4 422.1,221.2 422.1,221.1 422.1,221 422.1,220.9 422.1,220.8 422,220.7 
	422,220.6 421.9,220.4 421.8,220.3 421.8,220.2 421.7,220.2 421.7,220.1 421.6,220 421.5,219.9 421.3,219.9 421.2,219.8 
	421.1,219.7 420.9,219.7 420.8,219.7 420.7,219.7 420.5,219.7 420.4,219.7 420.3,219.7 420.3,219.7 420.1,219.8 420,219.9 
	419.9,219.9 419.8,220 419.7,220.1 419.6,220.2 419.5,220.3 419.4,220.4 419.4,220.6 419.3,220.7 419.3,220.8 419.3,220.9 
	419.3,221 419.2,221.1 419.3,221.2 419.3,221.4 419.3,221.5 419.4,221.6 419.4,221.8 419.5,221.9 419.6,222 419.7,222.1 
	419.8,222.2 419.9,222.3 419.9,222.3 420,222.4 420.1,222.4 420.3,222.5 420.4,222.5 420.5,222.5 420.7,222.5 420.8,222.5 
	420.9,222.5 421.1,222.5 421.2,222.4 421.3,222.4 "/>
<polyline fill="none" stroke="#000000" points="422.1,228.3 422.1,228.5 422,228.6 422,228.7 421.9,228.9 421.8,229 421.8,229.1 
	421.7,229.1 421.7,229.2 421.6,229.3 421.5,229.4 421.3,229.4 421.2,229.5 421.1,229.5 420.9,229.6 420.8,229.6 420.7,229.6 
	420.5,229.6 420.4,229.6 420.3,229.6 420.3,229.5 420.1,229.5 420,229.4 419.9,229.4 419.8,229.3 419.7,229.2 419.6,229.1 
	419.5,229 419.4,228.9 419.4,228.8 419.4,228.7 419.3,228.6 419.3,228.5 419.3,228.3 419.2,228.2 419.3,228.1 419.3,228.1 
	419.3,227.9 419.3,227.8 419.4,227.6 419.4,227.5 419.5,227.4 419.6,227.3 419.7,227.2 419.8,227.1 419.9,227 420,226.9 
	420.1,226.9 420.3,226.8 420.3,226.8 420.4,226.8 420.5,226.8 420.7,226.8 420.8,226.8 420.9,226.8 421.1,226.8 421.2,226.9 
	421.3,226.9 421.5,227 421.6,227.1 421.7,227.2 421.7,227.3 421.8,227.3 421.8,227.4 421.9,227.5 422,227.6 422,227.8 422.1,227.9 
	422.1,228.1 422.1,228.1 422.1,228.2 422.1,228.3 "/>
<polyline fill="none" stroke="#000000" points="422.1,235.4 422.1,235.4 422.1,235.6 422,235.7 422,235.8 421.9,235.9 421.8,236.1 
	421.8,236.2 421.7,236.2 421.7,236.3 421.6,236.4 421.5,236.5 421.3,236.5 421.2,236.6 421.1,236.6 420.9,236.7 420.8,236.7 
	420.7,236.7 420.5,236.7 420.4,236.7 420.3,236.6 420.3,236.6 420.1,236.6 420,236.5 419.9,236.5 419.8,236.4 419.7,236.3 
	419.6,236.2 419.5,236.1 419.4,235.9 419.4,235.8 419.3,235.7 419.3,235.6 419.3,235.4 419.3,235.4 419.2,235.3 419.3,235.1 
	419.3,235 419.3,234.9 419.4,234.7 419.4,234.6 419.5,234.5 419.6,234.4 419.7,234.3 419.8,234.2 419.9,234.1 420,234 420.1,234 
	420.2,233.9 420.3,233.9 420.3,233.9 420.4,233.9 420.5,233.9 420.7,233.9 420.8,233.9 420.9,233.9 421.1,233.9 421.1,233.9 
	421.2,234 421.3,234 421.5,234.1 421.6,234.2 421.7,234.3 421.8,234.4 421.8,234.5 421.9,234.6 422,234.7 422,234.9 422.1,235 
	422.1,235.1 422.1,235.3 422.1,235.4 "/>
<polyline fill="none" stroke="#000000" points="422.1,242.6 422,242.8 422,242.9 421.9,243 421.8,243.2 421.8,243.3 421.7,243.3 
	421.7,243.4 421.6,243.5 421.5,243.5 421.3,243.6 421.2,243.7 421.1,243.7 420.9,243.8 420.8,243.8 420.7,243.8 420.5,243.8 
	420.4,243.8 420.3,243.7 420.3,243.7 420.1,243.7 420,243.6 419.9,243.5 419.8,243.5 419.7,243.4 419.6,243.3 419.5,243.2 
	419.4,243 419.4,242.9 419.3,242.8 419.3,242.6 419.3,242.6 419.3,242.5 419.2,242.4 419.3,242.2 419.3,242.1 419.3,242 
	419.4,241.8 419.4,241.7 419.5,241.6 419.6,241.5 419.7,241.4 419.8,241.3 419.9,241.2 419.9,241.2 420,241.1 420.1,241.1 
	420.3,241 420.3,241 420.4,241 420.5,241 420.7,240.9 420.8,241 420.9,241 421.1,241 421.2,241.1 421.3,241.1 421.5,241.2 
	421.6,241.3 421.7,241.4 421.7,241.4 421.8,241.5 421.8,241.6 421.9,241.7 422,241.8 422,242 422.1,242.1 422.1,242.2 422.1,242.4 
	422.1,242.5 422.1,242.6 422.1,242.6 "/>
<polyline fill="none" stroke="#000000" points="149.9,171 149.8,170.7 149.8,170.6 149.7,170.2 149.6,169.7 149.4,169.3 149.1,169 
	148.9,168.6 148.6,168.3 148.2,168 148.1,167.8 147.9,167.7 147.5,167.5 147.1,167.3 146.7,167.1 146.2,167 145.8,167 145.8,167 
	145.4,166.9 144.9,167 144.6,167 144.5,167 144,167.1 143.6,167.3 143.2,167.5 142.8,167.7 142.6,167.8 142.5,168 142.1,168.3 
	141.8,168.6 141.6,169 141.4,169.3 141.2,169.7 141,170.2 140.9,170.6 140.9,170.7 140.8,171 140.8,171.1 140.8,171.5 140.8,171.9 
	140.9,172.4 141,172.8 141.2,173.2 141.4,173.6 141.4,173.7 141.6,174 141.8,174.4 142.1,174.7 142.5,175 142.8,175.3 143.2,175.5 
	143.6,175.7 144,175.8 144.5,175.9 144.6,176 144.9,176 145.4,176 145.8,176 145.8,176 146.2,175.9 146.7,175.8 147.1,175.7 
	147.5,175.5 147.9,175.3 148.2,175 148.6,174.7 148.9,174.4 149.1,174 149.3,173.7 149.4,173.6 149.6,173.2 149.7,172.8 
	149.8,172.4 149.9,171.9 149.9,171.5 149.9,171 "/>
<polyline fill="none" stroke="#000000" points="147.9,299.3 148.2,299 148.6,298.7 148.9,298.4 149.1,298 149.4,297.7 149.6,297.3 
	149.7,296.8 149.8,296.4 149.9,296 149.9,295.6 149.9,295.5 149.9,295.1 149.8,294.6 149.7,294.2 149.6,293.8 149.4,293.4 
	149.1,293 148.9,292.6 148.6,292.3 148.2,292 147.9,291.7 147.5,291.5 147.5,291.5 147.1,291.3 146.7,291.2 146.2,291.1 145.8,291 
	145.8,291 145.4,291 144.9,291 144.6,291 144.5,291.1 144,291.2 143.6,291.3 143.2,291.5 142.8,291.7 142.5,292 142.1,292.3 
	141.8,292.6 141.8,292.7 141.6,293 141.4,293.4 141.2,293.8 141,294.2 140.9,294.6 140.8,295.1 140.8,295.5 140.8,295.6 
	140.8,295.9 140.8,296 140.9,296.4 141,296.8 141.2,297.3 141.4,297.7 141.6,298 141.8,298.4 142.1,298.7 142.5,299 142.8,299.3 
	143.2,299.5 143.6,299.7 144,299.9 144.5,300 144.6,300 144.9,300 145.4,300.1 145.8,300 145.8,300 146.2,300 146.7,299.9 
	147.1,299.7 147.5,299.5 147.5,299.5 147.9,299.3 "/>
<polyline fill="none" stroke="#000000" points="21,3.9 21,9 21,11 21,11 26,11 60.7,11 60.7,3.9 106.1,3.9 106.1,11 145.8,11 
	145.8,11 145.8,9 145.8,3.9 147.1,4 148.5,4.2 149.9,4.5 151.2,5 152.4,5.6 153.6,6.3 154.7,7.1 155.8,8 156.6,9 156.7,9.1 
	157.5,10.2 158.3,11.4 158.8,12.6 159.3,14 159.7,15.3 159.9,16.7 159.9,18.1 159.9,19.5 159.7,20.6 159.7,20.8 159.3,22.2 
	158.8,23.5 158.3,24.7 157.5,25.9 156.7,27.1 155.8,28.1 154.7,29 153.6,29.9 152.4,30.6 151.2,31.2 150.4,31.4 149.9,31.6 
	148.5,32 147.1,32.2 146.8,32.2 145.8,32.2 144.7,32.2 144.4,32.2 143,32 141.6,31.6 140.3,31.2 139.1,30.6 138.8,30.4 137.9,29.9 
	136.8,29 135.7,28.1 134.8,27.1 134,25.9 133.3,24.7 132.7,23.5 132.2,22.2 131.9,20.8 131.8,20.6 131.7,19.5 131.6,18.1 35.2,18.1 
	35.1,19.5 35,20.6 34.9,20.8 34.6,22.2 34.3,22.9 34.1,23.5 33.5,24.7 32.8,25.9 32,27.1 31.1,28.1 30,29 28.9,29.9 27.7,30.6 
	26.5,31.2 25.1,31.6 23.8,32 22.7,32.1 22.4,32.2 22.1,32.2 21,32.2 21,60.6 21,100.3 21,128.6 22.4,128.7 22.7,128.7 23.8,128.9 
	25.1,129.2 26.5,129.7 27.7,130.3 28.9,131 30,131.8 31.1,132.8 32,133.8 32.8,134.9 33.5,136.1 33.8,136.7 34.1,137.4 34.6,138.7 
	34.9,140 35.1,141.4 35.2,142.8 131.6,142.8 131.7,141.4 131.9,140 132.2,138.7 132.7,137.4 133.3,136.1 134,134.9 134.8,133.8 
	135.7,132.8 136.8,131.8 137.9,131 138.8,130.5 139.1,130.3 140.3,129.7 141.6,129.2 143,128.9 144.4,128.7 145.8,128.6 
	147.1,128.7 148.5,128.9 149.9,129.2 149.9,129.2 150.4,129.4 151.2,129.7 152.4,130.3 153.6,131 154.7,131.8 155.8,132.8 
	156.7,133.8 157.5,134.9 158.3,136.1 158.5,136.7 158.8,137.4 159.3,138.7 159.7,140 159.9,141.4 159.9,142.8 159.9,144.2 
	159.7,145.6 159.3,146.9 158.8,148.2 158.8,148.3 158.3,149.5 157.5,150.7 156.7,151.8 155.8,152.8 154.7,153.7 153.6,154.6 
	152.4,155.3 151.2,155.9 150.4,156.2 149.9,156.4 148.5,156.7 147.1,156.9 145.8,157 145.8,149.9 145.8,149.9 106.1,149.9 
	106.1,157 60.7,157 60.7,149.9 21,149.9 21,149.9 21,157 19.6,156.9 18.3,156.7 16.9,156.4 15.6,155.9 14.4,155.3 13.2,154.6 
	12,153.7 11,152.8 10.1,151.8 9.2,150.7 8.5,149.5 8,148.3 7.9,148.2 7.5,147 7.5,146.9 7.1,145.6 6.9,144.2 6.9,142.8 6.9,137.9 
	6.9,100.3 14,100.3 14,60.6 6.9,60.6 6.9,22.9 6.9,18.1 6.9,16.7 7.1,15.3 7.5,14 7.5,13.9 7.9,12.6 8.5,11.4 9.2,10.2 10.1,9.1 
	10.2,9 11,8 12,7.1 13.2,6.3 14.4,5.6 15.6,5 16.9,4.5 18.3,4.2 19.6,4 21,3.9 "/>
<polyline fill="none" stroke="#000000" points="16.9,18 16.9,18.1 16.9,18.4 16.9,18.9 17,19.3 17.1,19.7 17.2,20.1 17.4,20.5 
	17.4,20.6 17.7,20.9 17.9,21.3 18.2,21.6 18.5,21.9 18.9,22.2 19.3,22.4 19.7,22.6 20.1,22.8 20.5,22.9 21,22.9 21,22.9 21.4,22.9 
	21.9,22.9 22.3,22.9 22.7,22.8 22.7,22.8 23.2,22.6 23.6,22.4 24,22.2 24.3,21.9 24.6,21.6 24.9,21.3 25.2,20.9 25.4,20.6 
	25.4,20.5 25.6,20.1 25.8,19.7 25.9,19.3 26,18.9 26,18.4 26,18.1 26,18 25.9,17.7 25.9,17.5 25.8,17.1 25.6,16.7 25.4,16.3 
	25.2,15.9 24.9,15.5 24.6,15.2 24.3,14.9 24.1,14.8 24,14.6 23.6,14.4 23.2,14.2 22.7,14.1 22.7,14 22.3,14 21.9,13.9 21.4,13.9 
	21,13.9 21,13.9 20.5,14 20.1,14.1 19.7,14.2 19.3,14.4 18.9,14.6 18.7,14.8 18.5,14.9 18.2,15.2 17.9,15.5 17.7,15.9 17.4,16.3 
	17.2,16.7 17.1,17.1 17,17.5 17,17.7 16.9,18 "/>
<polyline fill="none" stroke="#000000" points="21,147 21.4,147 21.9,147 22.3,146.9 22.7,146.8 22.7,146.8 23.2,146.7 23.6,146.5 
	24,146.2 24.3,146 24.6,145.7 24.9,145.3 25.2,145 25.4,144.6 25.6,144.2 25.8,143.8 25.9,143.3 26,142.9 26,142.8 26,142.5 
	26,142.5 26,142 25.9,141.6 25.8,141.1 25.6,140.7 25.4,140.3 25.2,139.9 24.9,139.6 24.6,139.2 24.3,138.9 24,138.7 23.6,138.4 
	23.2,138.3 22.7,138.1 22.7,138.1 22.3,138 21.9,137.9 21.4,137.9 21,137.9 21,137.9 20.5,138 20.1,138.1 19.8,138.2 19.7,138.3 
	19.3,138.4 18.9,138.7 18.5,138.9 18.2,139.2 17.9,139.6 17.7,139.9 17.4,140.3 17.2,140.7 17.1,141.1 17,141.6 16.9,142 
	16.9,142.5 16.9,142.5 16.9,142.8 16.9,142.9 17,143.3 17.1,143.8 17.2,144.2 17.4,144.6 17.7,145 17.9,145.3 18.2,145.7 18.5,146 
	18.9,146.2 19.3,146.5 19.7,146.7 19.8,146.7 20.1,146.8 20.5,146.9 21,147 21,147 "/>
<polyline fill="none" stroke="#000000" points="149.9,18 149.8,17.7 149.8,17.5 149.7,17.1 149.6,16.7 149.4,16.3 149.1,15.9 
	148.9,15.5 148.6,15.2 148.2,14.9 148.1,14.8 147.9,14.6 147.5,14.4 147.1,14.2 146.7,14.1 146.2,14 145.8,13.9 145.8,13.9 
	145.4,13.9 144.9,13.9 144.6,13.9 144.5,14 144,14.1 143.6,14.2 143.2,14.4 142.8,14.6 142.6,14.8 142.5,14.9 142.1,15.2 
	141.8,15.5 141.6,15.9 141.4,16.3 141.2,16.7 141,17.1 140.9,17.5 140.9,17.7 140.8,18 140.8,18.1 140.8,18.4 140.8,18.9 
	140.9,19.3 141,19.7 141.2,20.1 141.4,20.5 141.4,20.6 141.6,20.9 141.8,21.3 142.1,21.6 142.5,21.9 142.8,22.2 143.2,22.4 
	143.6,22.6 144,22.8 144.5,22.9 144.6,22.9 144.9,22.9 145.4,22.9 145.8,22.9 145.8,22.9 146.2,22.9 146.7,22.8 147.1,22.6 
	147.5,22.4 147.9,22.2 148.2,21.9 148.6,21.6 148.9,21.3 149.1,20.9 149.3,20.6 149.4,20.5 149.6,20.1 149.7,19.7 149.8,19.3 
	149.9,18.9 149.9,18.4 149.9,18 "/>
<polyline fill="none" stroke="#000000" points="147.9,146.2 148.2,146 148.6,145.7 148.9,145.3 149.1,145 149.4,144.6 149.6,144.2 
	149.7,143.8 149.8,143.3 149.9,142.9 149.9,142.5 149.9,142.5 149.9,142 149.8,141.6 149.7,141.1 149.6,140.7 149.4,140.3 
	149.1,139.9 148.9,139.6 148.6,139.2 148.2,138.9 147.9,138.7 147.5,138.4 147.5,138.4 147.1,138.3 146.7,138.1 146.2,138 
	145.8,137.9 145.8,137.9 145.4,137.9 144.9,137.9 144.6,138 144.5,138 144,138.1 143.6,138.3 143.2,138.4 142.8,138.7 142.5,138.9 
	142.1,139.2 141.8,139.6 141.8,139.6 141.6,139.9 141.4,140.3 141.2,140.7 141,141.1 140.9,141.6 140.8,142 140.8,142.5 
	140.8,142.5 140.8,142.8 140.8,142.9 140.9,143.3 141,143.8 141.2,144.2 141.4,144.6 141.6,145 141.8,145.3 142.1,145.7 142.5,146 
	142.8,146.2 143.2,146.5 143.6,146.7 144,146.8 144.5,146.9 144.6,146.9 144.9,147 145.4,147 145.8,147 145.8,147 146.2,146.9 
	146.7,146.8 147.1,146.7 147.5,146.5 147.5,146.5 147.9,146.2 "/>
<polyline fill="none" stroke="#000000" points="502.7,59.5 501.4,59.5 493.6,59.5 493.6,73.7 493.6,85 501.4,85 502.8,85 505.6,85 
	514.8,85 514.8,75.1 514.8,59.5 507,59.5 502.7,59.5 "/>
<polyline fill="none" stroke="#000000" points="410,191.3 410,192.8 410,192.8 410,202.7 422.1,202.7 431.2,202.7 431.2,192.8 
	431.2,192.8 431.2,191.3 431.2,188.5 431.2,177.2 423.4,177.2 410,177.2 410,187.1 410,187.1 410,191.3 "/>
<path fill="none" stroke="#000000" d="M36.6,28.6h15.6v7.1h15.6v-7.1h15.6v7.1h2.8H99v-7.1h9.9h5.7v7.1h15.6v64.9v9.9v11.3v7.1
	h-14.5v7.1h-14.4v-7.1H86.8v7.1H72.3v-7.1v-7.1H36.6v-11.3v-9.9V93h7.1V71.5V50h-7.1V35.6V28.6 M43.7,110.5h28.6v-9.9H43.7h0V110.5
	 M108.9,103.5v-3V75.2H86.2v25.4v3H108.9z"/>
<path fill="none" stroke="#000000" d="M65,179.8v7.1h1.4h14.2v-7.1h15.6v7.1h15.6v-7.1h15.6v7.1v14.4h-7.1v5.2V222v0.7h7.1v21.5
	h-7.1v21.5h7.1v5.9v8.5v7.1h-15.6v-7.1H96.1v7.1H80.6v-7.1H65v7.1H49.4v-7.1H33.8v-8.5v-8.5V222v-8.5v-26.6h15.6v-7.1L65,179.8
	 M88.1,234.8V222v-15.6H74V222v12.7H56V249h32.2L88.1,234.8 M64.5,221.3l0.3-0.2l0.3-0.3l0.3-0.3l0.2-0.3l0.2-0.4l0.2-0.4l0.1-0.4
	l0.1-0.4l0.1-0.4l0-0.4l0-0.3l0-0.1l-0.1-0.4l-0.1-0.4l-0.1-0.4l-0.2-0.4l-0.2-0.4l-0.2-0.3l-0.3-0.3l-0.3-0.3l-0.3-0.2l-0.1,0
	l-0.3-0.2l-0.4-0.2l-0.4-0.1l-0.4-0.1l-0.4-0.1l-0.4,0l-0.4,0l-0.2,0l-0.2,0l-0.4,0.1l-0.4,0.1l-0.4,0.2l-0.4,0.2l-0.3,0.2l-0.1,0.1
	l-0.2,0.2l-0.3,0.3l-0.2,0.3l-0.2,0.4l-0.2,0.4l-0.1,0.4l-0.1,0.4l-0.1,0.4l0,0.1l0,0.3l0,0.4l0.1,0.4l0.1,0.4l0.1,0.4l0.2,0.4
	l0.2,0.4l0.2,0.2l0.1,0.1l0.3,0.3l0.3,0.3l0.3,0.2l0.4,0.2l0.4,0.2l0.4,0.1l0.4,0.1l0.2,0l0.2,0l0.4,0l0.4,0l0.4-0.1l0.4-0.1
	l0.4-0.1l0.4-0.2L64.5,221.3L64.5,221.3 M100,271.6l0.4,0l0.4,0l0.4-0.1l0.4-0.1l0.4-0.1l0.1-0.1l0.2-0.1l0.4-0.2l0.3-0.2l0.3-0.3
	l0.3-0.3l0.2-0.3l0,0l0.2-0.3l0.2-0.4l0.1-0.4l0.1-0.4l0.1-0.4l0-0.4l0-0.4l0-0.1l0-0.3l-0.1-0.4l-0.1-0.4l-0.2-0.4l-0.2-0.4
	l-0.2-0.3l-0.3-0.3l-0.3-0.3l-0.2-0.2l-0.1-0.1l-0.4-0.2l-0.2-0.1l-0.1-0.1l-0.4-0.1l-0.4-0.1l-0.4-0.1l-0.4,0l-0.4,0l-0.4,0.1
	l-0.4,0.1l-0.4,0.1l-0.4,0.2l-0.4,0.2l-0.1,0.1l-0.2,0.2l-0.3,0.3l-0.3,0.3l-0.2,0.3l-0.2,0.4l-0.2,0.4l-0.1,0.3l0,0.1l-0.1,0.4
	l-0.1,0.4l0,0.4l0,0.4l0.1,0.4l0.1,0.4l0,0.1l0.1,0.3l0.2,0.4l0.2,0.3l0,0l0.2,0.3l0.3,0.3l0.3,0.3l0.3,0.2l0.4,0.2l0.4,0.2l0.4,0.1
	l0.1,0l0.3,0.1L100,271.6z"/>
<polyline fill="none" stroke="#000000" points="210.5,148.1 210.5,148.1 211.2,148.3 212,148.7 212.2,148.9 212.7,149.1 
	213.2,149.5 213.4,149.6 214,150.2 214.6,150.8 215.1,151.5 215.5,152.2 215.8,153 216.1,153.7 216.3,154.5 216.4,155.4 
	216.5,156.2 216.4,157 216.3,157.9 216.1,158.7 215.8,159.5 215.8,159.5 215.5,160.2 215.1,160.9 214.6,161.6 214,162.2 
	213.4,162.8 213.2,162.9 212.7,163.3 212.2,163.6 212,163.7 211.2,164.1 210.5,164.3 210.5,164.3 209.6,164.5 208.8,164.7 
	208,164.7 207.2,164.7 206.3,164.5 205.5,164.3 204.9,164.1 204.7,164.1 204,163.7 203.3,163.3 202.6,162.8 202,162.2 201.6,161.8 
	201.4,161.6 200.9,160.9 200.5,160.2 200.2,159.5 200.1,159.5 199.8,158.7 199.6,157.9 199.5,157 199.5,156.2 199.5,155.4 
	199.6,154.5 199.8,153.7 200.1,153 200.5,152.2 200.9,151.5 201.4,150.8 201.6,150.6 202,150.2 202.6,149.6 203.3,149.1 204,148.7 
	204.7,148.3 204.9,148.3 205.5,148.1 206.1,147.9 206.3,147.9 207.2,147.7 208,147.7 208.8,147.7 209.6,147.9 209.9,147.9 
	210.5,148.1 "/>
<polyline fill="none" stroke="#000000" points="210.5,167.9 210.5,167.9 211.2,168.2 212,168.5 212.7,169 213.2,169.4 213.4,169.5 
	214,170 214.6,170.7 214.9,171.2 215.1,171.3 215.5,172 215.8,172.8 216.1,173.6 216.3,174.4 216.4,175.2 216.5,176 216.4,176.9 
	216.4,177 216.3,177.7 216.1,178.5 215.8,179.3 215.5,180.1 215.1,180.8 214.6,181.4 214,182.1 213.4,182.6 213.2,182.7 
	212.7,183.1 212.2,183.4 212,183.5 211.2,183.9 210.5,184.2 210.5,184.2 209.6,184.4 208.8,184.5 208,184.6 207.2,184.5 
	206.3,184.4 205.5,184.2 204.9,184 204.7,183.9 204,183.5 203.7,183.4 203.3,183.1 202.6,182.6 202,182.1 201.6,181.7 201.4,181.4 
	200.9,180.8 200.5,180.1 200.1,179.3 199.8,178.5 199.6,177.7 199.5,176.9 199.5,176 199.5,175.2 199.6,174.4 199.8,173.6 
	200.1,172.8 200.5,172 200.9,171.3 201,171.2 201.4,170.7 201.6,170.4 202,170 202.6,169.5 203.3,169 204,168.5 204.7,168.2 
	204.9,168.1 205.5,167.9 206.3,167.7 207.2,167.6 208,167.5 208.8,167.6 209.6,167.7 210.5,167.9 "/>
<polyline fill="none" stroke="#000000" points="210.5,187.8 210.5,187.8 211.2,188 212,188.4 212.2,188.5 212.7,188.8 213.2,189.2 
	213.4,189.3 214,189.9 214.6,190.5 215.1,191.2 215.5,191.9 215.8,192.6 216.1,193.4 216.3,194.2 216.3,194.4 216.4,195.1 
	216.5,195.9 216.4,196.7 216.3,197.6 216.1,198.4 215.8,199.1 215.5,199.9 215.1,200.6 214.6,201.3 214,201.9 213.4,202.5 
	213.2,202.6 212.7,203 212.2,203.2 212,203.4 211.2,203.7 210.5,204 210.5,204 209.6,204.2 208.8,204.4 208,204.4 207.2,204.4 
	206.3,204.2 205.5,204 204.9,203.8 204.7,203.7 204,203.4 203.7,203.2 203.3,203 202.6,202.5 202,201.9 201.6,201.5 201.4,201.3 
	200.9,200.6 200.5,199.9 200.1,199.1 199.8,198.4 199.6,197.6 199.5,196.7 199.5,195.9 199.5,195.1 199.6,194.4 199.6,194.2 
	199.8,193.4 200.1,192.6 200.5,191.9 200.9,191.2 201.4,190.5 201.6,190.3 202,189.9 202.6,189.3 203.3,188.8 204,188.4 204.7,188 
	204.9,188 205.5,187.8 206.3,187.6 207.2,187.4 208,187.4 208.8,187.4 209.6,187.6 210.5,187.8 "/>
<polyline fill="none" stroke="#000000" points="207.6,160.4 208,160.5 208.4,160.4 208.8,160.4 209.2,160.3 209.6,160.1 210,160 
	210.4,159.7 210.5,159.6 210.6,159.5 210.7,159.5 211,159.2 211.3,158.9 211.5,158.6 211.7,158.2 211.9,157.8 212.1,157.4 
	212.2,157 212.2,156.6 212.2,156.6 212.2,156.2 212.2,155.8 212.2,155.4 212.1,155 211.9,154.6 211.7,154.2 211.5,153.8 
	211.4,153.7 211.3,153.5 211,153.2 210.7,152.9 210.5,152.8 210.4,152.7 210,152.5 209.6,152.3 209.2,152.1 208.8,152 208.4,152 
	208,151.9 207.6,152 207.4,152 207.2,152 206.8,152.1 206.4,152.3 206,152.5 205.6,152.7 205.3,152.9 205,153.2 204.9,153.3 
	204.7,153.5 204.5,153.7 204.4,153.8 204.2,154.2 204.1,154.6 203.9,155 203.8,155.4 203.7,155.8 203.7,156.2 203.7,156.6 
	203.8,156.6 203.8,157 203.9,157.4 204.1,157.8 204.2,158.2 204.4,158.6 204.7,158.9 204.9,159.1 205,159.2 205.3,159.5 
	205.3,159.5 205.6,159.7 206,160 206.4,160.1 206.8,160.3 207.2,160.4 207.6,160.4 "/>
<polyline fill="none" stroke="#000000" points="207.6,171.8 207.4,171.8 207.2,171.9 206.8,172 206.4,172.1 206,172.3 205.6,172.5 
	205.3,172.8 205,173 204.9,173.2 204.7,173.3 204.4,173.7 204.2,174 204.2,174.1 204.1,174.4 203.9,174.8 203.8,175.2 203.7,175.6 
	203.7,176 203.7,176.5 203.8,176.9 203.8,177 203.9,177.3 204.1,177.7 204.2,178.1 204.4,178.4 204.7,178.7 204.9,178.9 205,179.1 
	205.3,179.3 205.6,179.6 206,179.8 206.4,180 206.8,180.1 207.2,180.2 207.4,180.3 207.6,180.3 208,180.3 208.4,180.3 208.8,180.2 
	209.2,180.1 209.6,180 210,179.8 210.3,179.6 210.4,179.6 210.5,179.4 210.7,179.3 211,179.1 211.3,178.7 211.5,178.4 211.7,178.1 
	211.9,177.7 212.1,177.3 212.1,177 212.2,176.9 212.2,176.5 212.2,176 212.2,175.6 212.2,175.2 212.1,174.8 211.9,174.4 
	211.7,174.1 211.7,174 211.5,173.7 211.3,173.3 211,173 210.7,172.8 210.5,172.6 210.4,172.5 210,172.3 209.6,172.1 209.2,172 
	208.8,171.9 208.4,171.8 208,171.8 207.6,171.8 "/>
<polyline fill="none" stroke="#000000" points="210.5,199.3 210.7,199.2 211,198.9 211.3,198.6 211.5,198.3 211.7,197.9 
	211.9,197.5 212,197.3 212.1,197.1 212.2,196.7 212.2,196.3 212.2,195.9 212.2,195.5 212.2,195.1 212.1,194.7 212,194.4 
	211.9,194.3 211.7,193.9 211.5,193.5 211.3,193.2 211,192.9 210.7,192.6 210.5,192.5 210.4,192.4 210.3,192.3 210,192.1 209.6,192 
	209.2,191.8 208.8,191.7 208.4,191.7 208,191.6 207.6,191.7 207.4,191.7 207.2,191.7 206.8,191.8 206.4,192 206,192.1 205.6,192.4 
	205.3,192.6 205,192.9 204.9,193 204.7,193.2 204.4,193.5 204.2,193.9 204.1,194.3 204,194.4 203.9,194.7 203.8,195.1 203.7,195.5 
	203.7,195.9 203.7,196.3 203.8,196.7 203.9,197.1 204,197.3 204.1,197.5 204.2,197.9 204.4,198.3 204.7,198.6 204.9,198.8 
	205,198.9 205.3,199.2 205.6,199.4 206,199.6 206.4,199.8 206.8,200 207.2,200.1 207.4,200.1 207.6,200.1 208,200.1 208.4,200.1 
	208.8,200.1 209.2,200 209.6,199.8 210,199.6 210.3,199.5 210.4,199.4 210.5,199.3 "/>
<path fill="none" stroke="#000000" d="M233,123.6v7.1v0h21.5h14.4h7.1v20.7h-7.1v20.7h7.1v20.7h-7.1v20.7h7.1v20.7h-7.1h-14.4v7.1
	h-21.5v-7.1h-5.9h-15.6v7.1h-21.5v-7.1h-1.2h-6.1v-11.3h-7.1h0v11.3h-7.1v-11.3v-9.3h7.1v-20.7h-7.1v-20.7h7.1v-20.7h-7.1V142v-8
	v-3.4h7.1v3.4v8h0h7.1v-8v-3.4h7.3v0v-7.1H233 M208.3,134.1l-0.3,0l-0.3,0l-0.3,0l-0.3,0.1l-0.2,0.1l-0.1,0l-0.3,0.1l-0.2,0.1
	l-0.2,0.2l-0.2,0.2l-0.2,0.2l-0.1,0.1l-0.1,0.2l-0.1,0.2l-0.1,0.3l-0.1,0.3l-0.1,0.3l0,0.3l0,0.3l0,0.3l0,0.3l0.1,0.3l0.1,0.3l0,0.1
	l0.1,0.2l0.1,0.2l0.2,0.2l0.2,0.2l0.2,0.2l0.2,0.2l0.2,0.1l0.3,0.1l0.1,0l0.2,0.1l0.3,0.1l0.3,0l0.3,0l0.3,0l0.3,0l0.3-0.1l0.3-0.1
	l0.3-0.1l0.2-0.1l0.2-0.2l0.1-0.1l0.1-0.1l0.2-0.2l0.2-0.2l0.1-0.2l0.1-0.2l0-0.1l0.1-0.3l0.1-0.3l0-0.3l0-0.3l0-0.3l0-0.3l-0.1-0.3
	l-0.1-0.3l-0.1-0.3l-0.1-0.2l-0.1-0.2l-0.1-0.1l-0.2-0.2l-0.2-0.2l-0.2-0.2l-0.2-0.1l-0.3-0.1l-0.3-0.1l-0.3-0.1L208.3,134.1
	 M208.3,212.9l-0.3,0l-0.3,0l-0.3,0l-0.3,0.1l-0.2,0.1l-0.1,0l-0.3,0.1l-0.2,0.1l-0.2,0.2l0,0l-0.2,0.2l-0.2,0.2l-0.2,0.2l-0.1,0.2
	l-0.1,0.3l-0.1,0.3l-0.1,0.3l0,0.3l0,0.3l0,0.3l0,0.3l0,0.2l0,0.1l0.1,0.3l0.1,0.3l0.1,0.2l0.2,0.2l0.2,0.2l0.2,0.2l0.2,0.2l0.2,0.1
	l0.3,0.1l0.1,0l0.2,0.1l0.3,0.1l0.3,0l0.3,0l0.3,0l0.3,0l0.3-0.1l0.3-0.1l0.3-0.1l0.2-0.1l0.2-0.2l0.1-0.1l0.1-0.1l0.2-0.2l0.2-0.2
	l0.1-0.2l0.1-0.3l0.1-0.3l0-0.1l0-0.2l0-0.3l0-0.3l0-0.3l0-0.3l-0.1-0.3l-0.1-0.3l-0.1-0.3l-0.1-0.2l-0.2-0.2l-0.2-0.2l-0.2-0.2l0,0
	l-0.2-0.2l-0.2-0.1l-0.3-0.1l-0.3-0.1l-0.3-0.1L208.3,212.9 M210.8,142.5h-5.7h-16.3v67.6h16.3h5.7h16.3v-67.6H210.8z"/>
<polyline fill="none" stroke="#000000" points="210.5,265.7 210.5,265.7 211.2,266 212,266.3 212.2,266.5 212.7,266.8 213.2,267.2 
	213.4,267.3 214,267.8 214.6,268.5 215.1,269.1 215.5,269.8 215.8,270.6 216.1,271.4 216.3,272.2 216.4,273 216.5,273.8 
	216.4,274.7 216.3,275.5 216.1,276.3 215.8,277.1 215.8,277.2 215.5,277.9 215.1,278.6 214.6,279.2 214,279.9 213.4,280.4 
	213.2,280.5 212.7,280.9 212.2,281.2 212,281.3 211.2,281.7 210.5,282 210.5,282 209.6,282.2 208.8,282.3 208,282.3 207.2,282.3 
	206.3,282.2 205.5,282 204.9,281.7 204.7,281.7 204,281.3 203.3,280.9 202.6,280.4 202,279.9 201.6,279.5 201.4,279.2 200.9,278.6 
	200.5,277.9 200.2,277.2 200.1,277.1 199.8,276.3 199.6,275.5 199.5,274.7 199.5,273.8 199.5,273 199.6,272.2 199.8,271.4 
	200.1,270.6 200.5,269.8 200.9,269.1 201.4,268.5 201.6,268.2 202,267.8 202.6,267.3 203.3,266.8 204,266.3 204.7,266 204.9,265.9 
	205.5,265.7 206.1,265.6 206.3,265.5 207.2,265.4 208,265.3 208.8,265.4 209.6,265.5 209.9,265.6 210.5,265.7 "/>
<polyline fill="none" stroke="#000000" points="210.5,285.5 210.5,285.6 211.2,285.8 212,286.2 212.7,286.6 213.2,287 213.4,287.1 
	214,287.7 214.6,288.3 214.9,288.8 215.1,289 215.5,289.7 215.8,290.4 216.1,291.2 216.3,292 216.4,292.9 216.5,293.7 216.4,294.5 
	216.4,294.6 216.3,295.3 216.1,296.2 215.8,296.9 215.5,297.7 215.1,298.4 214.6,299.1 214,299.7 213.4,300.3 213.2,300.4 
	212.7,300.8 212.2,301 212,301.2 211.2,301.5 210.5,301.8 210.5,301.8 209.6,302 208.8,302.2 208,302.2 207.2,302.2 206.3,302 
	205.5,301.8 204.9,301.6 204.7,301.5 204,301.2 203.7,301 203.3,300.8 202.6,300.3 202,299.7 201.6,299.3 201.4,299.1 200.9,298.4 
	200.5,297.7 200.1,296.9 199.8,296.2 199.6,295.3 199.5,294.5 199.5,293.7 199.5,292.9 199.6,292 199.8,291.2 200.1,290.4 
	200.5,289.7 200.9,289 201,288.8 201.4,288.3 201.6,288.1 202,287.7 202.6,287.1 203.3,286.6 204,286.2 204.7,285.8 204.9,285.8 
	205.5,285.5 206.3,285.3 207.2,285.2 208,285.2 208.8,285.2 209.6,285.3 210.5,285.5 "/>
<polyline fill="none" stroke="#000000" points="210.5,305.4 210.5,305.4 211.2,305.7 212,306 212.2,306.2 212.7,306.5 213.2,306.8 
	213.4,307 214,307.5 214.6,308.1 215.1,308.8 215.5,309.5 215.8,310.3 216.1,311.1 216.3,311.9 216.3,312 216.4,312.7 216.5,313.5 
	216.4,314.4 216.3,315.2 216.1,316 215.8,316.8 215.5,317.5 215.1,318.3 214.6,318.9 214,319.5 213.4,320.1 213.2,320.2 
	212.7,320.6 212.2,320.9 212,321 211.2,321.4 210.5,321.6 210.5,321.7 209.6,321.9 208.8,322 208,322 207.2,322 206.3,321.9 
	205.5,321.7 204.9,321.4 204.7,321.4 204,321 203.7,320.9 203.3,320.6 202.6,320.1 202,319.5 201.6,319.1 201.4,318.9 200.9,318.3 
	200.5,317.5 200.1,316.8 199.8,316 199.6,315.2 199.5,314.4 199.5,313.5 199.5,312.7 199.6,312 199.6,311.9 199.8,311.1 
	200.1,310.3 200.5,309.5 200.9,308.8 201.4,308.1 201.6,307.9 202,307.5 202.6,307 203.3,306.5 204,306 204.7,305.7 204.9,305.6 
	205.5,305.4 206.3,305.2 207.2,305.1 208,305 208.8,305.1 209.6,305.2 210.5,305.4 "/>
<polyline fill="none" stroke="#000000" points="207.6,278.1 208,278.1 208.4,278.1 208.8,278 209.2,277.9 209.6,277.8 210,277.6 
	210.4,277.4 210.5,277.2 210.6,277.2 210.7,277.1 211,276.9 211.3,276.5 211.5,276.2 211.7,275.9 211.9,275.5 212.1,275.1 
	212.2,274.7 212.2,274.3 212.2,274.3 212.2,273.8 212.2,273.4 212.2,273 212.1,272.6 211.9,272.2 211.7,271.8 211.5,271.5 
	211.4,271.4 211.3,271.1 211,270.8 210.7,270.6 210.5,270.4 210.4,270.3 210,270.1 209.6,269.9 209.2,269.8 208.8,269.7 
	208.4,269.6 208,269.6 207.6,269.6 207.4,269.6 207.2,269.7 206.8,269.8 206.4,269.9 206,270.1 205.6,270.3 205.3,270.6 205,270.8 
	204.9,271 204.7,271.1 204.5,271.4 204.4,271.5 204.2,271.8 204.1,272.2 203.9,272.6 203.8,273 203.7,273.4 203.7,273.8 
	203.7,274.3 203.8,274.3 203.8,274.7 203.9,275.1 204.1,275.5 204.2,275.9 204.4,276.2 204.7,276.5 204.9,276.7 205,276.9 
	205.3,277.1 205.3,277.2 205.6,277.4 206,277.6 206.4,277.8 206.8,277.9 207.2,278 207.6,278.1 "/>
<polyline fill="none" stroke="#000000" points="207.6,289.5 207.4,289.5 207.2,289.5 206.8,289.6 206.4,289.8 206,289.9 
	205.6,290.1 205.3,290.4 205,290.7 204.9,290.8 204.7,291 204.4,291.3 204.2,291.7 204.2,291.7 204.1,292.1 203.9,292.5 
	203.8,292.9 203.7,293.3 203.7,293.7 203.7,294.1 203.8,294.5 203.8,294.6 203.9,294.9 204.1,295.3 204.2,295.7 204.4,296.1 
	204.7,296.4 204.9,296.6 205,296.7 205.3,297 205.6,297.2 206,297.4 206.4,297.6 206.8,297.8 207.2,297.9 207.4,297.9 207.6,297.9 
	208,297.9 208.4,297.9 208.8,297.9 209.2,297.8 209.6,297.6 210,297.4 210.3,297.2 210.4,297.2 210.5,297.1 210.7,297 211,296.7 
	211.3,296.4 211.5,296.1 211.7,295.7 211.9,295.3 212.1,294.9 212.1,294.6 212.2,294.5 212.2,294.1 212.2,293.7 212.2,293.3 
	212.2,292.9 212.1,292.5 211.9,292.1 211.7,291.7 211.7,291.7 211.5,291.3 211.3,291 211,290.7 210.7,290.4 210.5,290.3 
	210.4,290.1 210,289.9 209.6,289.8 209.2,289.6 208.8,289.5 208.4,289.5 208,289.4 207.6,289.5 "/>
<polyline fill="none" stroke="#000000" points="210.5,316.9 210.7,316.8 211,316.5 211.3,316.2 211.5,315.9 211.7,315.5 
	211.9,315.2 212,314.9 212.1,314.8 212.2,314.4 212.2,313.9 212.2,313.5 212.2,313.1 212.2,312.7 212.1,312.3 212,312 211.9,311.9 
	211.7,311.5 211.5,311.2 211.3,310.8 211,310.5 210.7,310.2 210.5,310.1 210.4,310 210.3,310 210,309.8 209.6,309.6 209.2,309.5 
	208.8,309.4 208.4,309.3 208,309.3 207.6,309.3 207.4,309.3 207.2,309.4 206.8,309.5 206.4,309.6 206,309.8 205.6,310 205.3,310.2 
	205,310.5 204.9,310.6 204.7,310.8 204.4,311.2 204.2,311.5 204.1,311.9 204,312 203.9,312.3 203.8,312.7 203.7,313.1 203.7,313.5 
	203.7,313.9 203.8,314.4 203.9,314.8 204,314.9 204.1,315.2 204.2,315.5 204.4,315.9 204.7,316.2 204.9,316.4 205,316.5 
	205.3,316.8 205.6,317.1 206,317.3 206.4,317.5 206.8,317.6 207.2,317.7 207.4,317.7 207.6,317.8 208,317.8 208.4,317.8 
	208.8,317.7 209.2,317.6 209.6,317.5 210,317.3 210.3,317.1 210.4,317.1 210.5,316.9 "/>
<path fill="none" stroke="#000000" d="M233,241.2v7.1v0h21.5h14.4h7.1V269h-7.1v20.7h7.1v20.7h-7.1v20.7h7.1v20.7h-7.1h-14.4v7.1
	h-21.5v-7.1h-5.9h-15.6v7.1h-21.5v-7.1h-1.2h-6.1v-11.3h-7.1h0v11.3h-7.1v-11.3v-9.3h7.1v-20.7h-7.1v-20.7h7.1V269h-7.1v-9.3v-8
	v-3.4h7.1v3.4v8h0h7.1v-8v-3.4h7.3v0v-7.1H233 M208.3,251.7l-0.3,0l-0.3,0l-0.3,0l-0.3,0.1l-0.2,0.1l-0.1,0l-0.3,0.1l-0.2,0.1
	l-0.2,0.2l-0.2,0.2l-0.2,0.2l-0.1,0.1l-0.1,0.2l-0.1,0.2l-0.1,0.3l-0.1,0.3l-0.1,0.3l0,0.3l0,0.3l0,0.3l0,0.3l0.1,0.3l0.1,0.3l0,0.1
	l0.1,0.2l0.1,0.2l0.2,0.2l0.2,0.2l0.2,0.2l0.2,0.2l0.2,0.1l0.3,0.1l0.1,0l0.2,0.1l0.3,0.1l0.3,0l0.3,0l0.3,0l0.3,0l0.3-0.1l0.3-0.1
	l0.3-0.1l0.2-0.1l0.2-0.2l0.1-0.1l0.1-0.1l0.2-0.2l0.2-0.2l0.1-0.2l0.1-0.2l0-0.1l0.1-0.3l0.1-0.3l0-0.3l0-0.3l0-0.3l0-0.3l-0.1-0.3
	l-0.1-0.3l-0.1-0.3l-0.1-0.2l-0.1-0.2l-0.1-0.1l-0.2-0.2l-0.2-0.2l-0.2-0.2l-0.2-0.1l-0.3-0.1l-0.3-0.1l-0.3-0.1L208.3,251.7
	 M208.3,330.5l-0.3,0l-0.3,0l-0.3,0l-0.3,0.1l-0.2,0.1l-0.1,0l-0.3,0.1l-0.2,0.1l-0.2,0.2l0,0l-0.2,0.2l-0.2,0.2l-0.2,0.2l-0.1,0.2
	l-0.1,0.3l-0.1,0.3l-0.1,0.3l0,0.3l0,0.3l0,0.3l0,0.3l0,0.2l0,0.1l0.1,0.3l0.1,0.3l0.1,0.2l0.2,0.2l0.2,0.2l0.2,0.2l0.2,0.2l0.2,0.1
	l0.3,0.1l0.1,0l0.2,0.1l0.3,0.1l0.3,0l0.3,0l0.3,0l0.3,0l0.3-0.1l0.3-0.1l0.3-0.1l0.2-0.1l0.2-0.2l0.1-0.1l0.1-0.1l0.2-0.2l0.2-0.2
	l0.1-0.2l0.1-0.3l0.1-0.3l0-0.1l0-0.2l0-0.3l0-0.3l0-0.3l0-0.3l-0.1-0.3l-0.1-0.3l-0.1-0.3l-0.1-0.2l-0.2-0.2l-0.2-0.2l-0.2-0.2l0,0
	l-0.2-0.2l-0.2-0.1l-0.3-0.1l-0.3-0.1l-0.3-0.1L208.3,330.5 M210.8,260.2h-5.7h-16.3v67.6h16.3h5.7h16.3v-67.6H210.8z"/>
<polyline fill="none" stroke="#000000" points="290.2,258 290.2,263 290.2,265 290.2,265 295.1,265 329.9,265 329.9,258 375.2,258 
	375.2,265 414.9,265 414.9,265 414.9,263 414.9,258 416.3,258 417.7,258.2 419,258.6 420.3,259 421.6,259.6 422.8,260.3 
	423.9,261.2 424.9,262.1 425.8,263 425.9,263.1 426.7,264.2 427.4,265.4 428,266.7 428.5,268 428.8,269.4 429,270.7 429.1,272.1 
	429,273.5 428.9,274.6 428.8,274.9 428.5,276.2 428,277.5 427.4,278.8 426.7,280 425.9,281.1 424.9,282.1 423.9,283.1 422.8,283.9 
	421.6,284.6 420.3,285.2 419.6,285.5 419,285.7 417.7,286 416.3,286.2 416,286.2 414.9,286.3 413.9,286.2 413.5,286.2 412.2,286 
	410.8,285.7 409.5,285.2 408.2,284.6 408,284.5 407,283.9 405.9,283.1 404.9,282.1 404,281.1 403.1,280 402.4,278.8 401.8,277.5 
	401.4,276.2 401,274.9 401,274.6 400.8,273.5 400.7,272.1 304.4,272.1 304.3,273.5 304.1,274.6 304.1,274.9 303.8,276.2 303.5,277 
	303.3,277.5 302.7,278.8 302,280 301.1,281.1 300.2,282.1 299.2,283.1 298.1,283.9 296.9,284.6 295.6,285.2 294.3,285.7 293,286 
	291.8,286.2 291.6,286.2 291.2,286.2 290.2,286.3 290.2,314.6 290.2,354.3 290.2,382.7 291.6,382.7 291.8,382.8 293,382.9 
	294.3,383.3 295.6,383.8 296.9,384.3 298.1,385.1 299.2,385.9 300.2,386.8 301.1,387.9 302,389 302.7,390.2 303,390.7 303.3,391.4 
	303.8,392.7 304.1,394.1 304.3,395.5 304.4,396.9 400.7,396.9 400.8,395.5 401,394.1 401.4,392.7 401.8,391.4 402.4,390.2 
	403.1,389 404,387.9 404.9,386.8 405.9,385.9 407,385.1 408,384.5 408.2,384.3 409.5,383.8 410.8,383.3 412.2,382.9 413.5,382.7 
	414.9,382.7 416.3,382.7 417.7,382.9 419,383.3 419.1,383.3 419.6,383.5 420.3,383.8 421.6,384.3 422.8,385.1 423.9,385.9 
	424.9,386.8 425.9,387.9 426.7,389 427.4,390.2 427.7,390.7 428,391.4 428.5,392.7 428.8,394.1 429,395.5 429.1,396.9 429,398.2 
	428.8,399.6 428.5,401 428,402.3 428,402.4 427.4,403.5 426.7,404.7 425.9,405.8 424.9,406.9 423.9,407.8 422.8,408.6 421.6,409.4 
	420.3,409.9 419.6,410.2 419,410.4 417.7,410.8 416.3,411 414.9,411 414.9,403.9 414.9,403.9 375.2,403.9 375.2,411 329.9,411 
	329.9,403.9 290.2,403.9 290.2,403.9 290.2,411 288.8,411 287.4,410.8 286.1,410.4 284.8,409.9 283.5,409.4 282.3,408.6 
	281.2,407.8 280.2,406.9 279.2,405.8 278.4,404.7 277.7,403.5 277.1,402.4 277.1,402.3 276.7,401.1 276.6,401 276.3,399.6 
	276.1,398.2 276,396.9 276,392 276,354.3 283.1,354.3 283.1,314.6 276,314.6 276,277 276,272.1 276.1,270.7 276.3,269.4 276.6,268 
	276.7,267.9 277.1,266.7 277.7,265.4 278.4,264.2 279.2,263.1 279.3,263 280.2,262.1 281.2,261.2 282.3,260.3 283.5,259.6 
	284.8,259 286.1,258.6 287.4,258.2 288.8,258 290.2,258 "/>
<polyline fill="none" stroke="#000000" points="286.1,272 286.1,272.1 286,272.5 286.1,272.9 286.1,273.4 286.2,273.8 286.4,274.2 
	286.6,274.6 286.6,274.6 286.8,275 287.1,275.3 287.4,275.7 287.7,276 288.1,276.2 288.4,276.5 288.9,276.7 289.3,276.8 
	289.7,276.9 290.1,277 290.2,277 290.6,277 291,277 291.5,276.9 291.8,276.8 291.9,276.8 292.3,276.7 292.7,276.5 293.1,276.2 
	293.5,276 293.8,275.7 294.1,275.3 294.4,275 294.6,274.6 294.6,274.6 294.8,274.2 294.9,273.8 295,273.4 295.1,272.9 295.1,272.5 
	295.1,272.1 295.1,272 295.1,271.7 295,271.6 294.9,271.1 294.8,270.7 294.6,270.3 294.4,269.9 294.1,269.6 293.8,269.3 293.5,269 
	293.3,268.8 293.1,268.7 292.7,268.5 292.3,268.3 291.9,268.1 291.8,268.1 291.5,268 291,267.9 290.6,267.9 290.2,267.9 
	290.1,267.9 289.7,268 289.3,268.1 288.9,268.3 288.4,268.5 288.1,268.7 287.9,268.8 287.7,269 287.4,269.3 287.1,269.6 
	286.8,269.9 286.6,270.3 286.4,270.7 286.2,271.1 286.1,271.6 286.1,271.7 286.1,272 "/>
<polyline fill="none" stroke="#000000" points="290.2,401 290.6,401.1 291,401 291.5,401 291.8,400.9 291.9,400.9 292.3,400.7 
	292.7,400.5 293.1,400.3 293.5,400 293.8,399.7 294.1,399.4 294.4,399 294.6,398.7 294.8,398.2 294.9,397.8 295,397.4 295.1,397 
	295.1,396.9 295.1,396.5 295.1,396.5 295.1,396.1 295,395.6 294.9,395.2 294.8,394.8 294.6,394.4 294.4,394 294.1,393.6 
	293.8,393.3 293.5,393 293.1,392.7 292.7,392.5 292.3,392.3 291.9,392.2 291.8,392.1 291.5,392.1 291,392 290.6,392 290.2,392 
	290.1,392 289.7,392.1 289.3,392.2 288.9,392.3 288.9,392.3 288.4,392.5 288.1,392.7 287.7,393 287.4,393.3 287.1,393.6 286.8,394 
	286.6,394.4 286.4,394.8 286.2,395.2 286.1,395.6 286.1,396.1 286,396.5 286.1,396.5 286.1,396.9 286.1,397 286.1,397.4 
	286.2,397.8 286.4,398.2 286.6,398.7 286.8,399 287.1,399.4 287.4,399.7 287.7,400 288.1,400.3 288.4,400.5 288.9,400.7 
	288.9,400.7 289.3,400.9 289.7,401 290.1,401 290.2,401 "/>
<polyline fill="none" stroke="#000000" points="419,272 419,271.7 419,271.6 418.9,271.1 418.7,270.7 418.5,270.3 418.3,269.9 
	418,269.6 417.7,269.3 417.4,269 417.2,268.8 417,268.7 416.7,268.5 416.3,268.3 415.8,268.1 415.4,268 415,267.9 414.9,267.9 
	414.5,267.9 414.1,267.9 413.8,268 413.6,268 413.2,268.1 412.8,268.3 412.4,268.5 412,268.7 411.8,268.8 411.6,269 411.3,269.3 
	411,269.6 410.7,269.9 410.5,270.3 410.3,270.7 410.2,271.1 410.1,271.6 410,271.7 410,272 410,272.1 410,272.5 410,272.9 
	410.1,273.4 410.2,273.8 410.3,274.2 410.5,274.6 410.5,274.6 410.7,275 411,275.3 411.3,275.7 411.6,276 412,276.2 412.4,276.5 
	412.8,276.7 413.2,276.8 413.6,276.9 413.8,276.9 414.1,277 414.5,277 414.9,277 415,277 415.4,276.9 415.8,276.8 416.3,276.7 
	416.7,276.5 417,276.2 417.4,276 417.7,275.7 418,275.3 418.3,275 418.5,274.6 418.5,274.6 418.7,274.2 418.9,273.8 419,273.4 
	419,272.9 419.1,272.5 419,272 "/>
<polyline fill="none" stroke="#000000" points="417,400.3 417.4,400 417.7,399.7 418,399.4 418.3,399 418.5,398.7 418.7,398.2 
	418.9,397.8 419,397.4 419,397 419.1,396.5 419.1,396.5 419,396.1 419,395.6 418.9,395.2 418.7,394.8 418.5,394.4 418.3,394 
	418,393.6 417.7,393.3 417.4,393 417,392.7 416.7,392.5 416.7,392.5 416.3,392.3 415.8,392.2 415.4,392.1 415,392 414.9,392 
	414.5,392 414.1,392 413.8,392 413.6,392.1 413.2,392.2 412.8,392.3 412.4,392.5 412,392.7 411.6,393 411.3,393.3 411,393.6 
	411,393.6 410.7,394 410.5,394.4 410.3,394.8 410.2,395.2 410.1,395.6 410,396.1 410,396.5 410,396.5 410,396.9 410,397 
	410.1,397.4 410.2,397.8 410.3,398.2 410.5,398.7 410.7,399 411,399.4 411.3,399.7 411.6,400 412,400.3 412.4,400.5 412.8,400.7 
	413.2,400.9 413.6,401 413.8,401 414.1,401 414.5,401.1 414.9,401 415,401 415.4,401 415.8,400.9 416.3,400.7 416.7,400.5 
	416.7,400.5 417,400.3 "/>
<polyline fill="none" stroke="#000000" points="321,300.5 321.1,300.5 321.8,300.8 322.6,301.1 322.8,301.3 323.3,301.5 
	323.8,301.9 324,302 324.6,302.6 325.1,303.2 325.6,303.9 326.1,304.6 326.4,305.4 326.7,306.2 326.9,307 327,307.8 327.1,308.6 
	327,309.5 326.9,310.3 326.7,311.1 326.4,311.9 326.4,312 326.1,312.6 325.6,313.3 325.1,314 324.6,314.6 324,315.2 323.8,315.3 
	323.3,315.7 322.8,316 322.6,316.1 321.8,316.5 321.1,316.7 321,316.8 320.2,317 319.4,317.1 318.6,317.1 317.7,317.1 316.9,317 
	316.1,316.8 315.4,316.5 315.3,316.5 314.6,316.1 313.8,315.7 313.2,315.2 312.5,314.6 312.2,314.2 312,314 311.5,313.3 
	311.1,312.6 310.7,312 310.7,311.9 310.4,311.1 310.2,310.3 310.1,309.5 310.1,308.6 310.1,307.8 310.2,307 310.4,306.2 
	310.7,305.4 311.1,304.6 311.5,303.9 312,303.2 312.2,303 312.5,302.6 313.2,302 313.8,301.5 314.6,301.1 315.3,300.8 315.4,300.7 
	316.1,300.5 316.7,300.3 316.9,300.3 317.7,300.2 318.6,300.1 319.4,300.2 320.2,300.3 320.5,300.3 321,300.5 "/>
<polyline fill="none" stroke="#000000" points="321,320.3 321.1,320.4 321.8,320.6 322.6,321 323.3,321.4 323.8,321.8 324,321.9 
	324.6,322.4 325.1,323.1 325.5,323.6 325.6,323.7 326.1,324.5 326.4,325.2 326.7,326 326.9,326.8 327,327.6 327.1,328.5 327,329.3 
	327,329.4 326.9,330.1 326.7,330.9 326.4,331.7 326.1,332.5 325.6,333.2 325.1,333.9 324.6,334.5 324,335 323.8,335.2 323.3,335.5 
	322.8,335.8 322.6,336 321.8,336.3 321.1,336.6 321,336.6 320.2,336.8 319.4,336.9 318.6,337 317.7,336.9 316.9,336.8 316.1,336.6 
	315.4,336.4 315.3,336.3 314.6,336 314.3,335.8 313.8,335.5 313.2,335 312.5,334.5 312.2,334.1 312,333.9 311.5,333.2 311.1,332.5 
	310.7,331.7 310.4,330.9 310.2,330.1 310.1,329.3 310.1,328.5 310.1,327.6 310.2,326.8 310.4,326 310.7,325.2 311.1,324.5 
	311.5,323.7 311.6,323.6 312,323.1 312.2,322.8 312.5,322.4 313.2,321.9 313.8,321.4 314.6,321 315.3,320.6 315.4,320.6 
	316.1,320.3 316.9,320.1 317.7,320 318.6,320 319.4,320 320.2,320.1 321,320.3 "/>
<polyline fill="none" stroke="#000000" points="321,340.2 321.1,340.2 321.8,340.4 322.6,340.8 322.8,341 323.3,341.2 323.8,341.6 
	324,341.7 324.6,342.3 325.1,342.9 325.6,343.6 326.1,344.3 326.4,345 326.7,345.8 326.9,346.6 326.9,346.8 327,347.5 327.1,348.3 
	327,349.1 326.9,350 326.7,350.8 326.4,351.6 326.1,352.3 325.6,353 325.1,353.7 324.6,354.3 324,354.9 323.8,355 323.3,355.4 
	322.8,355.7 322.6,355.8 321.8,356.2 321.1,356.4 321,356.4 320.2,356.6 319.4,356.8 318.6,356.8 317.7,356.8 316.9,356.6 
	316.1,356.4 315.4,356.2 315.3,356.2 314.6,355.8 314.3,355.7 313.8,355.4 313.2,354.9 312.5,354.3 312.2,353.9 312,353.7 
	311.5,353 311.1,352.3 310.7,351.6 310.4,350.8 310.2,350 310.1,349.1 310.1,348.3 310.1,347.5 310.2,346.8 310.2,346.6 
	310.4,345.8 310.7,345 311.1,344.3 311.5,343.6 312,342.9 312.2,342.7 312.5,342.3 313.2,341.7 313.8,341.2 314.6,340.8 
	315.3,340.4 315.4,340.4 316.1,340.2 316.9,340 317.7,339.8 318.6,339.8 319.4,339.8 320.2,340 321,340.2 "/>
<polyline fill="none" stroke="#000000" points="318.1,312.9 318.6,312.9 319,312.9 319.4,312.8 319.8,312.7 320.2,312.6 
	320.6,312.4 320.9,312.2 321.1,312 321.2,312 321.3,311.9 321.6,311.6 321.9,311.3 322.1,311 322.3,310.6 322.5,310.2 322.6,309.9 
	322.7,309.4 322.8,309 322.8,309 322.8,308.6 322.8,308.2 322.7,307.8 322.6,307.4 322.5,307 322.3,306.6 322.1,306.2 322,306.1 
	321.9,305.9 321.6,305.6 321.3,305.3 321.1,305.2 320.9,305.1 320.6,304.9 320.2,304.7 319.8,304.5 319.4,304.4 319,304.4 
	318.6,304.4 318.1,304.4 318,304.4 317.7,304.4 317.3,304.5 316.9,304.7 316.6,304.9 316.2,305.1 315.9,305.3 315.6,305.6 
	315.4,305.7 315.3,305.9 315.1,306.1 315,306.2 314.8,306.6 314.6,307 314.5,307.4 314.4,307.8 314.3,308.2 314.3,308.6 314.3,309 
	314.3,309 314.4,309.4 314.5,309.9 314.6,310.2 314.8,310.6 315,311 315.3,311.3 315.4,311.5 315.6,311.6 315.9,311.9 315.9,312 
	316.2,312.2 316.6,312.4 316.9,312.6 317.3,312.7 317.7,312.8 318.1,312.9 "/>
<polyline fill="none" stroke="#000000" points="318.1,324.2 318,324.2 317.7,324.3 317.3,324.4 316.9,324.5 316.6,324.7 
	316.2,324.9 315.9,325.2 315.6,325.4 315.4,325.6 315.3,325.8 315,326.1 314.8,326.5 314.8,326.5 314.6,326.8 314.5,327.2 
	314.4,327.6 314.3,328 314.3,328.5 314.3,328.9 314.4,329.3 314.4,329.4 314.5,329.7 314.6,330.1 314.8,330.5 315,330.8 
	315.3,331.2 315.4,331.3 315.6,331.5 315.9,331.8 316.2,332 316.6,332.2 316.9,332.4 317.3,332.5 317.7,332.6 318,332.7 
	318.1,332.7 318.6,332.7 319,332.7 319.4,332.6 319.8,332.5 320.2,332.4 320.6,332.2 320.9,332 320.9,332 321.1,331.9 321.3,331.8 
	321.6,331.5 321.9,331.2 322.1,330.8 322.3,330.5 322.5,330.1 322.6,329.7 322.7,329.4 322.7,329.3 322.8,328.9 322.8,328.5 
	322.8,328 322.7,327.6 322.6,327.2 322.5,326.8 322.3,326.5 322.3,326.5 322.1,326.1 321.9,325.8 321.6,325.4 321.3,325.2 
	321.1,325.1 320.9,324.9 320.6,324.7 320.2,324.5 319.8,324.4 319.4,324.3 319,324.2 318.6,324.2 318.1,324.2 "/>
<polyline fill="none" stroke="#000000" points="321.1,351.7 321.3,351.6 321.6,351.3 321.9,351 322.1,350.7 322.3,350.3 
	322.5,349.9 322.6,349.7 322.6,349.5 322.7,349.1 322.8,348.7 322.8,348.3 322.8,347.9 322.7,347.5 322.6,347.1 322.5,346.8 
	322.5,346.7 322.3,346.3 322.1,345.9 321.9,345.6 321.6,345.3 321.3,345 321.1,344.9 320.9,344.8 320.9,344.7 320.6,344.5 
	320.2,344.4 319.8,344.2 319.4,344.1 319,344.1 318.6,344 318.1,344.1 318,344.1 317.7,344.1 317.3,344.2 316.9,344.4 316.6,344.5 
	316.2,344.8 315.9,345 315.6,345.3 315.4,345.4 315.3,345.6 315,345.9 314.8,346.3 314.6,346.7 314.6,346.8 314.5,347.1 
	314.4,347.5 314.3,347.9 314.3,348.3 314.3,348.7 314.4,349.1 314.5,349.5 314.5,349.7 314.6,349.9 314.8,350.3 315,350.7 
	315.3,351 315.4,351.2 315.6,351.3 315.9,351.6 316.2,351.8 316.6,352.1 316.9,352.2 317.3,352.4 317.7,352.5 318,352.5 
	318.1,352.5 318.6,352.6 319,352.5 319.4,352.5 319.8,352.4 320.2,352.2 320.6,352.1 320.9,351.9 320.9,351.8 321.1,351.7 "/>
<polyline fill="none" stroke="#000000" points="408.4,303.8 408.4,324.5 401.3,324.5 401.3,345.2 408.4,345.2 408.4,363.9 
	408.4,365.9 401.3,365.9 401.3,363.9 401.3,363.9 392.8,363.9 392.8,386.6 392.8,393.7 377.2,393.7 377.2,386.6 377.2,363.9 
	368.7,363.9 368.7,365.6 368.7,386.6 361.6,386.6 361.6,386.6 361.6,393.7 346.1,393.7 346.1,386.6 346.1,386.6 330.5,386.6 
	330.5,386.6 330.5,393.7 314.9,393.7 307.8,386.6 307.8,386.6 307.8,363.9 307.8,362.4 337.6,362.4 337.6,295.7 321.4,295.7 
	315.7,295.7 307.8,295.7 307.8,283.1 307.8,283.1 314.9,276 330.5,276 330.5,283.1 337.6,283.1 346.1,283.1 346.1,276 361.6,276 
	361.6,283.1 368.7,283.1 368.7,294.5 377.2,294.5 377.2,283.1 377.2,276 392.8,276 392.8,283.1 392.8,294.5 401.3,294.5 
	401.3,303.8 408.4,303.8 "/>
<polyline fill="none" stroke="#000000" points="318.3,286.8 318,286.9 317.7,286.9 317.5,287 317.3,287.1 317.2,287.1 317,287.3 
	316.8,287.4 316.6,287.6 316.4,287.8 316.2,288.1 316.1,288.3 315.9,288.6 315.9,288.7 315.8,288.8 315.8,289.1 315.7,289.4 
	315.7,289.6 315.7,289.9 315.8,290.2 315.8,290.5 315.9,290.7 316.1,291 316.2,291.2 316.4,291.4 316.5,291.6 316.6,291.7 
	316.8,291.8 317,292 317.2,292.1 317.3,292.2 317.5,292.3 317.7,292.4 318,292.4 318.3,292.5 318.6,292.5 318.8,292.5 319.1,292.4 
	319.4,292.4 319.7,292.3 319.9,292.1 320.1,292 320.2,292 320.4,291.8 320.6,291.7 320.8,291.4 320.9,291.2 321.1,291 321.2,290.7 
	321.3,290.5 321.3,290.2 321.4,289.9 321.4,289.6 321.4,289.4 321.3,289.1 321.3,288.8 321.3,288.7 321.2,288.6 321.1,288.3 
	320.9,288.1 320.8,287.8 320.6,287.6 320.4,287.4 320.2,287.3 320.1,287.3 319.9,287.1 319.7,287 319.4,286.9 319.1,286.9 
	318.8,286.8 318.6,286.8 318.3,286.8 "/>
<polyline fill="none" stroke="#000000" points="317.2,365.9 317,366.1 316.8,366.2 316.6,366.4 316.4,366.6 316.2,366.9 
	316.1,367.1 316,367.1 315.9,367.4 315.8,367.6 315.8,367.9 315.7,368.2 315.7,368.4 315.7,368.7 315.8,369 315.8,369.3 
	315.9,369.5 316.1,369.8 316.2,370 316.2,370 316.4,370.2 316.6,370.5 316.8,370.6 317,370.8 317.2,370.9 317.3,371 317.5,371.1 
	317.7,371.2 318,371.2 318.3,371.3 318.6,371.3 318.8,371.3 319.1,371.2 319.4,371.2 319.7,371.1 319.9,370.9 320.1,370.8 
	320.2,370.8 320.4,370.6 320.6,370.5 320.8,370.2 320.9,370 320.9,370 321.1,369.8 321.2,369.5 321.3,369.3 321.3,369 321.4,368.7 
	321.4,368.4 321.4,368.2 321.3,367.9 321.3,367.6 321.2,367.4 321.1,367.1 321.1,367.1 320.9,366.9 320.8,366.6 320.6,366.4 
	320.4,366.2 320.2,366.1 320.1,366.1 319.9,365.9 319.7,365.8 319.4,365.7 319.1,365.7 318.8,365.6 318.6,365.6 318.3,365.6 
	318,365.7 317.7,365.7 317.5,365.8 317.3,365.9 317.2,365.9 "/>
<polyline fill="none" stroke="#000000" points="443.2,258 443.2,263 443.2,265 443.2,265 448.1,265 482.9,265 482.9,258 528.2,258 
	528.2,265 567.9,265 567.9,265 567.9,263 567.9,258 569.3,258 570.7,258.2 572,258.6 573.3,259 574.6,259.6 575.8,260.3 
	576.9,261.2 577.9,262.1 578.8,263 578.9,263.1 579.7,264.2 580.4,265.4 581,266.7 581.5,268 581.8,269.4 582,270.7 582.1,272.1 
	582,273.5 581.9,274.6 581.8,274.9 581.5,276.2 581,277.5 580.4,278.8 579.7,280 578.9,281.1 577.9,282.1 576.9,283.1 575.8,283.9 
	574.6,284.6 573.3,285.2 572.6,285.5 572,285.7 570.7,286 569.3,286.2 569,286.2 567.9,286.3 566.9,286.2 566.5,286.2 565.2,286 
	563.8,285.7 562.5,285.2 561.2,284.6 561,284.5 560,283.9 558.9,283.1 557.9,282.1 557,281.1 556.1,280 555.4,278.8 554.8,277.5 
	554.4,276.2 554,274.9 554,274.6 553.8,273.5 553.7,272.1 457.4,272.1 457.3,273.5 457.1,274.6 457.1,274.9 456.8,276.2 456.5,277 
	456.3,277.5 455.7,278.8 455,280 454.2,281.1 453.2,282.1 452.2,283.1 451.1,283.9 449.9,284.6 448.6,285.2 447.3,285.7 446,286 
	444.8,286.2 444.6,286.2 444.2,286.2 443.2,286.3 443.2,314.6 443.2,354.3 443.2,382.7 444.6,382.7 444.8,382.8 446,382.9 
	447.3,383.3 448.6,383.8 449.9,384.3 451.1,385.1 452.2,385.9 453.2,386.8 454.2,387.9 455,389 455.7,390.2 456,390.7 456.3,391.4 
	456.8,392.7 457.1,394.1 457.3,395.5 457.4,396.9 553.7,396.9 553.8,395.5 554,394.1 554.4,392.7 554.8,391.4 555.4,390.2 
	556.1,389 557,387.9 557.9,386.8 558.9,385.9 560,385.1 561,384.5 561.2,384.3 562.5,383.8 563.8,383.3 565.2,382.9 566.5,382.7 
	567.9,382.7 569.3,382.7 570.7,382.9 572,383.3 572.1,383.3 572.6,383.5 573.3,383.8 574.6,384.3 575.8,385.1 576.9,385.9 
	577.9,386.8 578.9,387.9 579.7,389 580.4,390.2 580.7,390.7 581,391.4 581.5,392.7 581.8,394.1 582,395.5 582.1,396.9 582,398.2 
	581.8,399.6 581.5,401 581,402.3 581,402.4 580.4,403.5 579.7,404.7 578.9,405.8 577.9,406.9 576.9,407.8 575.8,408.6 574.6,409.4 
	573.3,409.9 572.6,410.2 572,410.4 570.7,410.8 569.3,411 567.9,411 567.9,403.9 567.9,403.9 528.2,403.9 528.2,411 482.9,411 
	482.9,403.9 443.2,403.9 443.2,403.9 443.2,411 441.8,411 440.4,410.8 439.1,410.4 437.8,409.9 436.5,409.4 435.3,408.6 
	434.2,407.8 433.2,406.9 432.2,405.8 431.4,404.7 430.7,403.5 430.1,402.4 430.1,402.3 429.7,401.1 429.6,401 429.3,399.6 
	429.1,398.2 429,396.9 429,392 429,354.3 436.1,354.3 436.1,314.6 429,314.6 429,277 429,272.1 429.1,270.7 429.3,269.4 429.6,268 
	429.7,267.9 430.1,266.7 430.7,265.4 431.4,264.2 432.2,263.1 432.3,263 433.2,262.1 434.2,261.2 435.3,260.3 436.5,259.6 
	437.8,259 439.1,258.6 440.4,258.2 441.8,258 443.2,258 "/>
<polyline fill="none" stroke="#000000" points="439.1,272 439.1,272.1 439.1,272.5 439.1,272.9 439.1,273.4 439.2,273.8 
	439.4,274.2 439.6,274.6 439.6,274.6 439.8,275 440.1,275.3 440.4,275.7 440.7,276 441.1,276.2 441.5,276.5 441.9,276.7 
	442.3,276.8 442.7,276.9 443.1,277 443.2,277 443.6,277 444,277 444.5,276.9 444.8,276.8 444.9,276.8 445.3,276.7 445.7,276.5 
	446.1,276.2 446.5,276 446.8,275.7 447.1,275.3 447.4,275 447.6,274.6 447.6,274.6 447.8,274.2 447.9,273.8 448.1,273.4 
	448.1,272.9 448.1,272.5 448.1,272.1 448.1,272 448.1,271.7 448.1,271.6 447.9,271.1 447.8,270.7 447.6,270.3 447.4,269.9 
	447.1,269.6 446.8,269.3 446.5,269 446.3,268.8 446.1,268.7 445.7,268.5 445.3,268.3 444.9,268.1 444.8,268.1 444.5,268 444,267.9 
	443.6,267.9 443.2,267.9 443.1,267.9 442.7,268 442.3,268.1 441.9,268.3 441.5,268.5 441.1,268.7 440.9,268.8 440.7,269 
	440.4,269.3 440.1,269.6 439.8,269.9 439.6,270.3 439.4,270.7 439.2,271.1 439.1,271.6 439.1,271.7 439.1,272 "/>
<polyline fill="none" stroke="#000000" points="443.2,401 443.6,401.1 444,401 444.5,401 444.8,400.9 444.9,400.9 445.3,400.7 
	445.7,400.5 446.1,400.3 446.5,400 446.8,399.7 447.1,399.4 447.4,399 447.6,398.7 447.8,398.2 447.9,397.8 448.1,397.4 448.1,397 
	448.1,396.9 448.1,396.5 448.1,396.5 448.1,396.1 448.1,395.6 447.9,395.2 447.8,394.8 447.6,394.4 447.4,394 447.1,393.6 
	446.8,393.3 446.5,393 446.1,392.7 445.7,392.5 445.3,392.3 444.9,392.2 444.8,392.1 444.5,392.1 444,392 443.6,392 443.2,392 
	443.1,392 442.7,392.1 442.3,392.2 441.9,392.3 441.9,392.3 441.5,392.5 441.1,392.7 440.7,393 440.4,393.3 440.1,393.6 439.8,394 
	439.6,394.4 439.4,394.8 439.2,395.2 439.1,395.6 439.1,396.1 439.1,396.5 439.1,396.5 439.1,396.9 439.1,397 439.1,397.4 
	439.2,397.8 439.4,398.2 439.6,398.7 439.8,399 440.1,399.4 440.4,399.7 440.7,400 441.1,400.3 441.5,400.5 441.9,400.7 
	441.9,400.7 442.3,400.9 442.7,401 443.1,401 443.2,401 "/>
<polyline fill="none" stroke="#000000" points="572,272 572,271.7 572,271.6 571.9,271.1 571.7,270.7 571.5,270.3 571.3,269.9 
	571,269.6 570.7,269.3 570.4,269 570.2,268.8 570,268.7 569.7,268.5 569.3,268.3 568.8,268.1 568.4,268 568,267.9 567.9,267.9 
	567.5,267.9 567.1,267.9 566.8,268 566.6,268 566.2,268.1 565.8,268.3 565.4,268.5 565,268.7 564.8,268.8 564.6,269 564.3,269.3 
	564,269.6 563.7,269.9 563.5,270.3 563.3,270.7 563.2,271.1 563.1,271.6 563,271.7 563,272 563,272.1 563,272.5 563,272.9 
	563.1,273.4 563.2,273.8 563.3,274.2 563.5,274.6 563.5,274.6 563.7,275 564,275.3 564.3,275.7 564.6,276 565,276.2 565.4,276.5 
	565.8,276.7 566.2,276.8 566.6,276.9 566.8,276.9 567.1,277 567.5,277 567.9,277 568,277 568.4,276.9 568.8,276.8 569.3,276.7 
	569.7,276.5 570,276.2 570.4,276 570.7,275.7 571,275.3 571.3,275 571.5,274.6 571.5,274.6 571.7,274.2 571.9,273.8 572,273.4 
	572,272.9 572.1,272.5 572,272 "/>
<polyline fill="none" stroke="#000000" points="570,400.3 570.4,400 570.7,399.7 571,399.4 571.3,399 571.5,398.7 571.7,398.2 
	571.9,397.8 572,397.4 572,397 572.1,396.5 572.1,396.5 572,396.1 572,395.6 571.9,395.2 571.7,394.8 571.5,394.4 571.3,394 
	571,393.6 570.7,393.3 570.4,393 570,392.7 569.7,392.5 569.7,392.5 569.3,392.3 568.8,392.2 568.4,392.1 568,392 567.9,392 
	567.5,392 567.1,392 566.8,392 566.6,392.1 566.2,392.2 565.8,392.3 565.4,392.5 565,392.7 564.6,393 564.3,393.3 564,393.6 
	564,393.6 563.7,394 563.5,394.4 563.3,394.8 563.2,395.2 563.1,395.6 563,396.1 563,396.5 563,396.5 563,396.9 563,397 
	563.1,397.4 563.2,397.8 563.3,398.2 563.5,398.7 563.7,399 564,399.4 564.3,399.7 564.6,400 565,400.3 565.4,400.5 565.8,400.7 
	566.2,400.9 566.6,401 566.8,401 567.1,401 567.5,401.1 567.9,401 568,401 568.4,401 568.8,400.9 569.3,400.7 569.7,400.5 
	569.7,400.5 570,400.3 "/>
<polyline fill="none" stroke="#000000" points="474,300.5 474.1,300.5 474.8,300.8 475.6,301.1 475.8,301.3 476.3,301.5 
	476.8,301.9 477,302 477.6,302.6 478.1,303.2 478.6,303.9 479.1,304.6 479.4,305.4 479.7,306.2 479.9,307 480,307.8 480.1,308.6 
	480,309.5 479.9,310.3 479.7,311.1 479.4,311.9 479.4,312 479.1,312.6 478.6,313.3 478.1,314 477.6,314.6 477,315.2 476.8,315.3 
	476.3,315.7 475.8,316 475.6,316.1 474.8,316.5 474.1,316.7 474,316.8 473.2,317 472.4,317.1 471.6,317.1 470.7,317.1 469.9,317 
	469.1,316.8 468.4,316.5 468.3,316.5 467.6,316.1 466.8,315.7 466.2,315.2 465.6,314.6 465.2,314.2 465,314 464.5,313.3 
	464.1,312.6 463.7,312 463.7,311.9 463.4,311.1 463.2,310.3 463.1,309.5 463.1,308.6 463.1,307.8 463.2,307 463.4,306.2 
	463.7,305.4 464.1,304.6 464.5,303.9 465,303.2 465.2,303 465.6,302.6 466.2,302 466.8,301.5 467.6,301.1 468.3,300.8 468.4,300.7 
	469.1,300.5 469.7,300.3 469.9,300.3 470.7,300.2 471.6,300.1 472.4,300.2 473.2,300.3 473.5,300.3 474,300.5 "/>
<polyline fill="none" stroke="#000000" points="474,320.3 474.1,320.4 474.8,320.6 475.6,321 476.3,321.4 476.8,321.8 477,321.9 
	477.6,322.4 478.1,323.1 478.5,323.6 478.6,323.7 479.1,324.5 479.4,325.2 479.7,326 479.9,326.8 480,327.6 480.1,328.5 480,329.3 
	480,329.4 479.9,330.1 479.7,330.9 479.4,331.7 479.1,332.5 478.6,333.2 478.1,333.9 477.6,334.5 477,335 476.8,335.2 476.3,335.5 
	475.8,335.8 475.6,336 474.8,336.3 474.1,336.6 474,336.6 473.2,336.8 472.4,336.9 471.6,337 470.7,336.9 469.9,336.8 469.1,336.6 
	468.4,336.4 468.3,336.3 467.6,336 467.3,335.8 466.8,335.5 466.2,335 465.6,334.5 465.2,334.1 465,333.9 464.5,333.2 464.1,332.5 
	463.7,331.7 463.4,330.9 463.2,330.1 463.1,329.3 463.1,328.5 463.1,327.6 463.2,326.8 463.4,326 463.7,325.2 464.1,324.5 
	464.5,323.7 464.6,323.6 465,323.1 465.2,322.8 465.6,322.4 466.2,321.9 466.8,321.4 467.6,321 468.3,320.6 468.4,320.6 
	469.1,320.3 469.9,320.1 470.7,320 471.6,320 472.4,320 473.2,320.1 474,320.3 "/>
<polyline fill="none" stroke="#000000" points="474,340.2 474.1,340.2 474.8,340.4 475.6,340.8 475.8,341 476.3,341.2 476.8,341.6 
	477,341.7 477.6,342.3 478.1,342.9 478.6,343.6 479.1,344.3 479.4,345 479.7,345.8 479.9,346.6 479.9,346.8 480,347.5 480.1,348.3 
	480,349.1 479.9,350 479.7,350.8 479.4,351.6 479.1,352.3 478.6,353 478.1,353.7 477.6,354.3 477,354.9 476.8,355 476.3,355.4 
	475.8,355.7 475.6,355.8 474.8,356.2 474.1,356.4 474,356.4 473.2,356.6 472.4,356.8 471.6,356.8 470.7,356.8 469.9,356.6 
	469.1,356.4 468.4,356.2 468.3,356.2 467.6,355.8 467.3,355.7 466.8,355.4 466.2,354.9 465.6,354.3 465.2,353.9 465,353.7 
	464.5,353 464.1,352.3 463.7,351.6 463.4,350.8 463.2,350 463.1,349.1 463.1,348.3 463.1,347.5 463.2,346.8 463.2,346.6 
	463.4,345.8 463.7,345 464.1,344.3 464.5,343.6 465,342.9 465.2,342.7 465.6,342.3 466.2,341.7 466.8,341.2 467.6,340.8 
	468.3,340.4 468.4,340.4 469.1,340.2 469.9,340 470.7,339.8 471.6,339.8 472.4,339.8 473.2,340 474,340.2 "/>
<polyline fill="none" stroke="#000000" points="471.1,312.9 471.6,312.9 472,312.9 472.4,312.8 472.8,312.7 473.2,312.6 
	473.6,312.4 473.9,312.2 474.1,312 474.2,312 474.3,311.9 474.6,311.6 474.9,311.3 475.1,311 475.3,310.6 475.5,310.2 475.6,309.9 
	475.7,309.4 475.8,309 475.8,309 475.8,308.6 475.8,308.2 475.7,307.8 475.6,307.4 475.5,307 475.3,306.6 475.1,306.2 475,306.1 
	474.9,305.9 474.6,305.6 474.3,305.3 474.1,305.2 473.9,305.1 473.6,304.9 473.2,304.7 472.8,304.5 472.4,304.4 472,304.4 
	471.6,304.4 471.1,304.4 471,304.4 470.7,304.4 470.3,304.5 469.9,304.7 469.6,304.9 469.2,305.1 468.9,305.3 468.6,305.6 
	468.4,305.7 468.3,305.9 468.1,306.1 468,306.2 467.8,306.6 467.6,307 467.5,307.4 467.4,307.8 467.3,308.2 467.3,308.6 467.3,309 
	467.3,309 467.4,309.4 467.5,309.9 467.6,310.2 467.8,310.6 468,311 468.3,311.3 468.4,311.5 468.6,311.6 468.9,311.9 468.9,312 
	469.2,312.2 469.6,312.4 469.9,312.6 470.3,312.7 470.7,312.8 471.1,312.9 "/>
<polyline fill="none" stroke="#000000" points="471.1,324.2 471,324.2 470.7,324.3 470.3,324.4 469.9,324.5 469.6,324.7 
	469.2,324.9 468.9,325.2 468.6,325.4 468.4,325.6 468.3,325.8 468,326.1 467.8,326.5 467.8,326.5 467.6,326.8 467.5,327.2 
	467.4,327.6 467.3,328 467.3,328.5 467.3,328.9 467.4,329.3 467.4,329.4 467.5,329.7 467.6,330.1 467.8,330.5 468,330.8 
	468.3,331.2 468.4,331.3 468.6,331.5 468.9,331.8 469.2,332 469.6,332.2 469.9,332.4 470.3,332.5 470.7,332.6 471,332.7 
	471.1,332.7 471.6,332.7 472,332.7 472.4,332.6 472.8,332.5 473.2,332.4 473.6,332.2 473.9,332 473.9,332 474.1,331.9 474.3,331.8 
	474.6,331.5 474.9,331.2 475.1,330.8 475.3,330.5 475.5,330.1 475.6,329.7 475.7,329.4 475.7,329.3 475.8,328.9 475.8,328.5 
	475.8,328 475.7,327.6 475.6,327.2 475.5,326.8 475.3,326.5 475.3,326.5 475.1,326.1 474.9,325.8 474.6,325.4 474.3,325.2 
	474.1,325.1 473.9,324.9 473.6,324.7 473.2,324.5 472.8,324.4 472.4,324.3 472,324.2 471.6,324.2 471.1,324.2 "/>
<polyline fill="none" stroke="#000000" points="474.1,351.7 474.3,351.6 474.6,351.3 474.9,351 475.1,350.7 475.3,350.3 
	475.5,349.9 475.6,349.7 475.6,349.5 475.7,349.1 475.8,348.7 475.8,348.3 475.8,347.9 475.7,347.5 475.6,347.1 475.5,346.8 
	475.5,346.7 475.3,346.3 475.1,345.9 474.9,345.6 474.6,345.3 474.3,345 474.1,344.9 473.9,344.8 473.9,344.7 473.6,344.5 
	473.2,344.4 472.8,344.2 472.4,344.1 472,344.1 471.6,344 471.1,344.1 471,344.1 470.7,344.1 470.3,344.2 469.9,344.4 469.6,344.5 
	469.2,344.8 468.9,345 468.6,345.3 468.4,345.4 468.3,345.6 468,345.9 467.8,346.3 467.6,346.7 467.6,346.8 467.5,347.1 
	467.4,347.5 467.3,347.9 467.3,348.3 467.3,348.7 467.4,349.1 467.5,349.5 467.5,349.7 467.6,349.9 467.8,350.3 468,350.7 
	468.3,351 468.4,351.2 468.6,351.3 468.9,351.6 469.2,351.8 469.6,352.1 469.9,352.2 470.3,352.4 470.7,352.5 471,352.5 
	471.1,352.5 471.6,352.6 472,352.5 472.4,352.5 472.8,352.4 473.2,352.2 473.6,352.1 473.9,351.9 473.9,351.8 474.1,351.7 "/>
<polyline fill="none" stroke="#000000" points="561.4,303.8 561.4,324.5 554.3,324.5 554.3,345.2 561.4,345.2 561.4,363.9 
	561.4,365.9 554.3,365.9 554.3,363.9 554.3,363.9 545.8,363.9 545.8,386.6 545.8,393.7 530.3,393.7 530.3,386.6 530.3,363.9 
	521.7,363.9 521.7,365.6 521.7,386.6 514.6,386.6 514.6,386.6 514.6,393.7 499.1,393.7 499.1,386.6 499.1,386.6 483.5,386.6 
	483.5,386.6 483.5,393.7 467.9,393.7 460.8,386.6 460.8,386.6 460.8,363.9 460.8,362.4 490.6,362.4 490.6,295.7 474.4,295.7 
	468.7,295.7 460.8,295.7 460.8,283.1 460.8,283.1 467.9,276 483.5,276 483.5,283.1 490.6,283.1 499.1,283.1 499.1,276 514.6,276 
	514.6,283.1 521.7,283.1 521.7,294.5 530.3,294.5 530.3,283.1 530.3,276 545.8,276 545.8,283.1 545.8,294.5 554.3,294.5 
	554.3,303.8 561.4,303.8 "/>
<polyline fill="none" stroke="#000000" points="471.3,286.8 471,286.9 470.7,286.9 470.5,287 470.3,287.1 470.2,287.1 470,287.3 
	469.8,287.4 469.6,287.6 469.4,287.8 469.2,288.1 469.1,288.3 468.9,288.6 468.9,288.7 468.8,288.8 468.8,289.1 468.7,289.4 
	468.7,289.6 468.7,289.9 468.8,290.2 468.8,290.5 468.9,290.7 469.1,291 469.2,291.2 469.4,291.4 469.6,291.6 469.6,291.7 
	469.8,291.8 470,292 470.2,292.1 470.3,292.2 470.5,292.3 470.7,292.4 471,292.4 471.3,292.5 471.6,292.5 471.8,292.5 472.1,292.4 
	472.4,292.4 472.7,292.3 472.9,292.1 473.1,292 473.2,292 473.4,291.8 473.6,291.7 473.8,291.4 473.9,291.2 474.1,291 474.2,290.7 
	474.3,290.5 474.4,290.2 474.4,289.9 474.4,289.6 474.4,289.4 474.4,289.1 474.3,288.8 474.3,288.7 474.2,288.6 474.1,288.3 
	473.9,288.1 473.8,287.8 473.6,287.6 473.4,287.4 473.2,287.3 473.1,287.3 472.9,287.1 472.7,287 472.4,286.9 472.1,286.9 
	471.8,286.8 471.6,286.8 471.3,286.8 "/>
<polyline fill="none" stroke="#000000" points="470.2,365.9 470,366.1 469.8,366.2 469.6,366.4 469.4,366.6 469.2,366.9 
	469.1,367.1 469.1,367.1 468.9,367.4 468.8,367.6 468.8,367.9 468.7,368.2 468.7,368.4 468.7,368.7 468.8,369 468.8,369.3 
	468.9,369.5 469.1,369.8 469.2,370 469.2,370 469.4,370.2 469.6,370.5 469.8,370.6 470,370.8 470.2,370.9 470.3,371 470.5,371.1 
	470.7,371.2 471,371.2 471.3,371.3 471.6,371.3 471.8,371.3 472.1,371.2 472.4,371.2 472.7,371.1 472.9,370.9 473.1,370.8 
	473.2,370.8 473.4,370.6 473.6,370.5 473.8,370.2 473.9,370 473.9,370 474.1,369.8 474.2,369.5 474.3,369.3 474.4,369 474.4,368.7 
	474.4,368.4 474.4,368.2 474.4,367.9 474.3,367.6 474.2,367.4 474.1,367.1 474.1,367.1 473.9,366.9 473.8,366.6 473.6,366.4 
	473.4,366.2 473.2,366.1 473.1,366.1 472.9,365.9 472.7,365.8 472.4,365.7 472.1,365.7 471.8,365.6 471.6,365.6 471.3,365.6 
	471,365.7 470.7,365.7 470.5,365.8 470.3,365.9 470.2,365.9 "/>
</svg>
