<?xml version="1.0" standalone="no"?>
<!DOCTYPE svg PUBLIC "-//W3C//DTD SVG 1.1//EN"
  "http://www.w3.org/Graphics/SVG/1.1/DTD/svg11.dtd">
<svg width="56mm" height="55.99999999999997mm" viewBox="-12.25 -194.99999999999994 56 55.99999999999997" xmlns="http://www.w3.org/2000/svg" version="1.1">
	<title>svgOutput</title>
	<desc>made with tinkercad</desc>
<path d="M 42.74985122680664 -189.00300598144528 L 40.959999084472656 -189.00300598144528 L 40.24800109863281 -189.00300598144528 L 40.24800109863281 -188.99999999999997 L 40.24800109863281 -187.25700378417966 L 40.24800109863281 -174.99800109863278 L 42.75 -174.99800109863278 L 42.75 -159.00300598144528 L 40.24800109863281 -159.00300598144528 L 40.24800109863281 -144.99999999999997 L 40.24800109863281 -144.99800109863278 L 40.959999084472656 -144.99800109863278 L 42.749900817871094 -144.99800109863278 L 42.72600173950195 -144.5099945068359 L 42.65399932861328 -144.02499389648435 L 42.53499984741211 -143.54899597167966 L 42.36899948120117 -143.08700561523435 L 42.15999984741211 -142.64300537109372 L 41.90700149536133 -142.22200012207028 L 41.6150016784668 -141.82800292968747 L 41.2859992980957 -141.46400451660153 L 40.959999084472656 -141.1693420410156 L 40.922000885009766 -141.1349945068359 L 40.52799987792969 -140.8430023193359 L 40.106998443603516 -140.5899963378906 L 39.66299819946289 -140.38099670410153 L 39.20100021362305 -140.2149963378906 L 38.724998474121094 -140.09599304199216 L 38.2400016784668 -140.02400207519528 L 37.75 -139.99999999999997 L 37.2599983215332 -140.02400207519528 L 36.86399841308594 -140.0827941894531 L 36.775001525878906 -140.09599304199216 L 36.29899978637695 -140.2149963378906 L 35.83700180053711 -140.38099670410153 L 35.393001556396484 -140.5899963378906 L 34.97200012207031 -140.8430023193359 L 34.577999114990234 -141.1349945068359 L 34.2140007019043 -141.46400451660153 L 33.8849983215332 -141.82800292968747 L 33.59299850463867 -142.22200012207028 L 33.34000015258789 -142.64300537109372 L 33.13100051879883 -143.08700561523435 L 33.03290939331055 -143.36000061035153 L 32.96500015258789 -143.54899597167966 L 32.84600067138672 -144.02499389648435 L 32.77399826049805 -144.5099945068359 L 32.768001556396484 -144.63250732421872 L 32.75 -144.99999999999997 L 32.768001556396484 -145.36749267578122 L 32.77399826049805 -145.49000549316403 L 32.84600067138672 -145.9750061035156 L 32.96500015258789 -146.45100402832028 L 33.13100051879883 -146.9129943847656 L 33.34000015258789 -147.35699462890622 L 33.39949417114258 -147.45599365234372 L 33.59299850463867 -147.77799987792966 L 33.8849983215332 -148.17199707031247 L 34.2140007019043 -148.5359954833984 L 34.577999114990234 -148.86500549316403 L 34.97200012207031 -149.15699768066403 L 35.393001556396484 -149.41000366210935 L 35.83700180053711 -149.6190032958984 L 36.29899978637695 -149.78500366210935 L 36.775001525878906 -149.90400695800778 L 36.86399841308594 -149.91720581054685 L 37.2599983215332 -149.97599792480466 L 37.75 -149.99999999999997 L 37.75 -183.99999999999997 L 37.2599983215332 -184.02400207519528 L 36.86399841308594 -184.0827941894531 L 36.775001525878906 -184.09599304199216 L 36.29899978637695 -184.2149963378906 L 36.02799987792969 -184.31237792968747 L 35.83700180053711 -184.38099670410153 L 35.393001556396484 -184.5899963378906 L 34.97200012207031 -184.8430023193359 L 34.577999114990234 -185.1349945068359 L 34.2140007019043 -185.46400451660153 L 33.8849983215332 -185.82800292968747 L 33.59299850463867 -186.22200012207028 L 33.34000015258789 -186.64300537109372 L 33.13100051879883 -187.08700561523435 L 32.96500015258789 -187.54899597167966 L 32.84600067138672 -188.02499389648435 L 32.78795623779297 -188.4160003662109 L 32.77399826049805 -188.5099945068359 L 32.768001556396484 -188.63250732421872 L 32.75 -188.99999999999997 L 22.753000259399414 -188.99999999999997 L 8.748000144958496 -188.99999999999997 L -1.25 -188.99999999999997 L -1.2740000486373901 -188.5099945068359 L -1.2879546880722046 -188.4160003662109 L -1.3459999561309814 -188.02499389648435 L -1.465000033378601 -187.54899597167966 L -1.63100004196167 -187.08700561523435 L -1.840000033378601 -186.64300537109372 L -2.0929999351501465 -186.22200012207028 L -2.384999990463257 -185.82800292968747 L -2.7139999866485596 -185.46400451660153 L -3.078000068664551 -185.1349945068359 L -3.4719998836517334 -184.8430023193359 L -3.8929998874664307 -184.5899963378906 L -4.0960001945495605 -184.49444580078122 L -4.336999893188477 -184.38099670410153 L -4.798999786376953 -184.2149963378906 L -5.275000095367432 -184.09599304199216 L -5.760000228881836 -184.02400207519528 L -6.25 -183.99999999999997 L -6.25 -149.99999999999997 L -5.760000228881836 -149.97599792480466 L -5.275000095367432 -149.90400695800778 L -4.798999786376953 -149.78500366210935 L -4.336999893188477 -149.6190032958984 L -3.8929998874664307 -149.41000366210935 L -3.4719998836517334 -149.15699768066403 L -3.078000068664551 -148.86500549316403 L -2.7139999866485596 -148.5359954833984 L -2.384999990463257 -148.17199707031247 L -2.0929999351501465 -147.77799987792966 L -1.8994940519332886 -147.45599365234372 L -1.840000033378601 -147.35699462890622 L -1.63100004196167 -146.9129943847656 L -1.465000033378601 -146.45100402832028 L -1.3459999561309814 -145.9750061035156 L -1.2740000486373901 -145.49000549316403 L -1.25 -144.99999999999997 L -1.2740000486373901 -144.5099945068359 L -1.3459999561309814 -144.02499389648435 L -1.465000033378601 -143.54899597167966 L -1.4689524173736572 -143.5379943847656 L -1.5329090356826782 -143.36000061035153 L -1.63100004196167 -143.08700561523435 L -1.840000033378601 -142.64300537109372 L -2.0929999351501465 -142.22200012207028 L -2.384999990463257 -141.82800292968747 L -2.7139999866485596 -141.46400451660153 L -3.078000068664551 -141.1349945068359 L -3.4719998836517334 -140.8430023193359 L -3.8929998874664307 -140.5899963378906 L -4.0960001945495605 -140.49444580078122 L -4.336999893188477 -140.38099670410153 L -4.798999786376953 -140.2149963378906 L -5.275000095367432 -140.09599304199216 L -5.760000228881836 -140.02400207519528 L -6.25 -139.99999999999997 L -6.739999771118164 -140.02400207519528 L -7.224999904632568 -140.09599304199216 L -7.701000213623047 -140.2149963378906 L -8.163000106811523 -140.38099670410153 L -8.192000389099121 -140.39465332031247 L -8.607000350952148 -140.5899963378906 L -9.027999877929688 -140.8430023193359 L -9.42199993133545 -141.1349945068359 L -9.78600025177002 -141.46400451660153 L -10.114999771118164 -141.82800292968747 L -10.406999588012695 -142.22200012207028 L -10.65999984741211 -142.64300537109372 L -10.869000434875488 -143.08700561523435 L -10.967090606689453 -143.36000061035153 L -11.03499984741211 -143.54899597167966 L -11.154000282287598 -144.02499389648435 L -11.22599983215332 -144.5099945068359 L -11.24990177154541 -144.99800109863278 L -8.748000144958496 -144.99800109863278 L -8.748000144958496 -144.99999999999997 L -8.748000144958496 -159.00300598144528 L -11.25 -159.00300598144528 L -11.25 -174.99800109863278 L -8.748000144958496 -174.99800109863278 L -8.748000144958496 -188.99999999999997 L -8.748000144958496 -189.00300598144528 L -11.249853134155273 -189.00300598144528 L -11.22599983215332 -189.49000549316403 L -11.154000282287598 -189.9750061035156 L -11.03499984741211 -190.45100402832028 L -10.869000434875488 -190.9129943847656 L -10.65999984741211 -191.35699462890622 L -10.406999588012695 -191.77799987792966 L -10.114999771118164 -192.17199707031244 L -9.78600025177002 -192.53599548339838 L -9.42199993133545 -192.865005493164 L -9.027999877929688 -193.156997680664 L -8.607000350952148 -193.41000366210932 L -8.192000389099121 -193.60534667968744 L -8.163000106811523 -193.61900329589838 L -7.732999801635742 -193.7734985351562 L -7.701000213623047 -193.78500366210932 L -7.224999904632568 -193.90400695800776 L -6.739999771118164 -193.97599792480463 L -6.25 -193.99999999999994 L -4.5279998779296875 -193.99999999999994 L 8.748000144958496 -193.99999999999994 L 8.748000144958496 -191.49800109863278 L 22.753000259399414 -191.49800109863278 L 22.753000259399414 -193.99999999999994 L 36.02799987792969 -193.99999999999994 L 37.75 -193.99999999999994 L 38.2400016784668 -193.97599792480463 L 38.724998474121094 -193.90400695800776 L 39.20100021362305 -193.78500366210932 L 39.233001708984375 -193.7734985351562 L 39.66299819946289 -193.61900329589838 L 40.106998443603516 -193.41000366210932 L 40.52799987792969 -193.156997680664 L 40.922000885009766 -192.865005493164 L 40.959999084472656 -192.83065795898432 L 41.2859992980957 -192.53599548339838 L 41.6150016784668 -192.17199707031244 L 41.90700149536133 -191.77799987792966 L 42.15999984741211 -191.35699462890622 L 42.36899948120117 -190.9129943847656 L 42.53499984741211 -190.45100402832028 L 42.65399932861328 -189.9750061035156 L 42.72600173950195 -189.49000549316403 L 42.74985122680664 -189.00300598144528 M 37.7869987487793 -190.45399475097653 L 37.75 -190.45588684082028 L 37.630001068115234 -190.46200561523435 L 37.472999572753906 -190.45399475097653 L 37.31700134277344 -190.43099975585935 L 37.165000915527344 -190.39300537109372 L 37.016998291015625 -190.3399963378906 L 36.875 -190.2720031738281 L 36.86399841308594 -190.2654876708984 L 36.7400016784668 -190.1920013427734 L 36.612998962402344 -190.0980072021484 L 36.49700164794922 -189.99200439453122 L 36.39099884033203 -189.8760070800781 L 36.29800033569336 -189.74899291992185 L 36.21699905395508 -189.61500549316403 L 36.14899826049805 -189.47200012207028 L 36.09700012207031 -189.3240051269531 L 36.05799865722656 -189.17199707031247 L 36.03499984741211 -189.01600646972653 L 36.03428649902344 -188.99999999999997 L 36.02799987792969 -188.8589935302734 L 36.03499984741211 -188.70199584960935 L 36.05799865722656 -188.54699707031247 L 36.091392517089844 -188.4160003662109 L 36.09700012207031 -188.39399719238278 L 36.14899826049805 -188.2460021972656 L 36.21699905395508 -188.10400390624997 L 36.29800033569336 -187.96899414062497 L 36.39099884033203 -187.8430023193359 L 36.49700164794922 -187.72599792480466 L 36.612998962402344 -187.61999511718747 L 36.7400016784668 -187.52699279785153 L 36.86399841308594 -187.45260620117185 L 36.875 -187.44599914550778 L 37.016998291015625 -187.37899780273435 L 37.165000915527344 -187.32600402832028 L 37.31700134277344 -187.28700256347653 L 37.472999572753906 -187.26400756835935 L 37.630001068115234 -187.25700378417966 L 37.75 -187.26234436035153 L 37.7869987487793 -187.26400756835935 L 37.88800048828125 -187.27888488769528 L 37.94300079345703 -187.28700256347653 L 38.095001220703125 -187.32600402832028 L 38.24300003051758 -187.37899780273435 L 38.3849983215332 -187.44599914550778 L 38.52000045776367 -187.52699279785153 L 38.64699935913086 -187.61999511718747 L 38.76300048828125 -187.72599792480466 L 38.86899948120117 -187.8430023193359 L 38.9119987487793 -187.90126037597653 L 38.96200180053711 -187.96899414062497 L 39.042999267578125 -188.10400390624997 L 39.111000061035156 -188.2460021972656 L 39.16299819946289 -188.39399719238278 L 39.168609619140625 -188.4160003662109 L 39.20199966430664 -188.54699707031247 L 39.224998474121094 -188.70199584960935 L 39.233001708984375 -188.8589935302734 L 39.22581481933594 -188.99999999999997 L 39.224998474121094 -189.01600646972653 L 39.20199966430664 -189.17199707031247 L 39.16299819946289 -189.3240051269531 L 39.111000061035156 -189.47200012207028 L 39.042999267578125 -189.61500549316403 L 38.96200180053711 -189.74899291992185 L 38.9119987487793 -189.81727600097653 L 38.86899948120117 -189.8760070800781 L 38.76300048828125 -189.99200439453122 L 38.64699935913086 -190.0980072021484 L 38.52000045776367 -190.1920013427734 L 38.3849983215332 -190.2720031738281 L 38.24300003051758 -190.3399963378906 L 38.095001220703125 -190.39300537109372 L 37.94300079345703 -190.43099975585935 L 37.88800048828125 -190.43910217285153 L 37.7869987487793 -190.45399475097653 M -7.725815296173096 -188.99999999999997 L -7.732999801635742 -188.8589935302734 L -7.724999904632568 -188.70199584960935 L -7.702000141143799 -188.54699707031247 L -7.668607711791992 -188.4160003662109 L -7.663000106811523 -188.39399719238278 L -7.611000061035156 -188.2460021972656 L -7.543000221252441 -188.10400390624997 L -7.461999893188477 -187.96899414062497 L -7.36899995803833 -187.8430023193359 L -7.263000011444092 -187.72599792480466 L -7.146999835968018 -187.61999511718747 L -7.019999980926514 -187.52699279785153 L -6.885000228881836 -187.44599914550778 L -6.743000030517578 -187.37899780273435 L -6.59499979019165 -187.32600402832028 L -6.442999839782715 -187.28700256347653 L -6.2870001792907715 -187.26400756835935 L -6.25 -187.26234436035153 L -6.144000053405762 -187.25762939453122 L -6.130000114440918 -187.25700378417966 L -5.9730000495910645 -187.26400756835935 L -5.816999912261963 -187.28700256347653 L -5.664999961853027 -187.32600402832028 L -5.517000198364258 -187.37899780273435 L -5.375 -187.44599914550778 L -5.239999771118164 -187.52699279785153 L -5.11299991607666 -187.61999511718747 L -4.997000217437744 -187.72599792480466 L -4.890999794006348 -187.8430023193359 L -4.797999858856201 -187.96899414062497 L -4.7170000076293945 -188.10400390624997 L -4.64900016784668 -188.2460021972656 L -4.5970001220703125 -188.39399719238278 L -4.5913920402526855 -188.4160003662109 L -4.558000087738037 -188.54699707031247 L -4.534999847412109 -188.70199584960935 L -4.5279998779296875 -188.8589935302734 L -4.5342864990234375 -188.99999999999997 L -4.534999847412109 -189.01600646972653 L -4.558000087738037 -189.17199707031247 L -4.5970001220703125 -189.3240051269531 L -4.637756824493408 -189.44000244140622 L -4.64900016784668 -189.47200012207028 L -4.7170000076293945 -189.61500549316403 L -4.797999858856201 -189.74899291992185 L -4.890999794006348 -189.8760070800781 L -4.997000217437744 -189.99200439453122 L -5.11299991607666 -190.0980072021484 L -5.239999771118164 -190.1920013427734 L -5.375 -190.2720031738281 L -5.517000198364258 -190.3399963378906 L -5.664999961853027 -190.39300537109372 L -5.816999912261963 -190.43099975585935 L -5.9730000495910645 -190.45399475097653 L -6.130000114440918 -190.46200561523435 L -6.144000053405762 -190.4612884521484 L -6.25 -190.45588684082028 L -6.2870001792907715 -190.45399475097653 L -6.442999839782715 -190.43099975585935 L -6.59499979019165 -190.39300537109372 L -6.743000030517578 -190.3399963378906 L -6.885000228881836 -190.2720031738281 L -7.019999980926514 -190.1920013427734 L -7.146999835968018 -190.0980072021484 L -7.263000011444092 -189.99200439453122 L -7.36899995803833 -189.8760070800781 L -7.461999893188477 -189.74899291992185 L -7.543000221252441 -189.61500549316403 L -7.611000061035156 -189.47200012207028 L -7.622243404388428 -189.44000244140622 L -7.663000106811523 -189.3240051269531 L -7.702000141143799 -189.17199707031247 L -7.724999904632568 -189.01600646972653 L -7.725815296173096 -188.99999999999997 M 37.7869987487793 -143.5460052490234 L 37.88800048828125 -143.5608978271484 L 37.94300079345703 -143.5690002441406 L 38.095001220703125 -143.60699462890622 L 38.24300003051758 -143.66000366210935 L 38.3849983215332 -143.72799682617185 L 38.52000045776367 -143.80799865722653 L 38.64699935913086 -143.90199279785153 L 38.76300048828125 -144.00799560546872 L 38.86899948120117 -144.12399291992185 L 38.9119987487793 -144.1827239990234 L 38.96200180053711 -144.2510070800781 L 39.042999267578125 -144.3849945068359 L 39.111000061035156 -144.52799987792966 L 39.16299819946289 -144.67599487304685 L 39.20199966430664 -144.82800292968747 L 39.224998474121094 -144.9839935302734 L 39.22581481933594 -144.99999999999997 L 39.233001708984375 -145.14100646972653 L 39.224998474121094 -145.2980041503906 L 39.20878219604492 -145.40800476074216 L 39.20199966430664 -145.45399475097653 L 39.16299819946289 -145.60600280761716 L 39.111000061035156 -145.75399780273435 L 39.042999267578125 -145.89599609374997 L 38.96200180053711 -146.03100585937497 L 38.9119987487793 -146.0987396240234 L 38.86899948120117 -146.15699768066403 L 38.76300048828125 -146.27400207519528 L 38.64699935913086 -146.38000488281247 L 38.52000045776367 -146.4730072021484 L 38.3849983215332 -146.55400085449216 L 38.24300003051758 -146.6210021972656 L 38.095001220703125 -146.67399597167966 L 37.94300079345703 -146.7129974365234 L 37.88800048828125 -146.72111511230466 L 37.7869987487793 -146.7359924316406 L 37.75 -146.7376556396484 L 37.630001068115234 -146.74299621582028 L 37.472999572753906 -146.7359924316406 L 37.31700134277344 -146.7129974365234 L 37.165000915527344 -146.67399597167966 L 37.016998291015625 -146.6210021972656 L 36.875 -146.55400085449216 L 36.86399841308594 -146.5473937988281 L 36.7400016784668 -146.4730072021484 L 36.612998962402344 -146.38000488281247 L 36.49700164794922 -146.27400207519528 L 36.39099884033203 -146.15699768066403 L 36.29800033569336 -146.03100585937497 L 36.21699905395508 -145.89599609374997 L 36.14899826049805 -145.75399780273435 L 36.09700012207031 -145.60600280761716 L 36.05799865722656 -145.45399475097653 L 36.05121612548828 -145.40800476074216 L 36.03499984741211 -145.2980041503906 L 36.02799987792969 -145.14100646972653 L 36.03428649902344 -144.99999999999997 L 36.03499984741211 -144.9839935302734 L 36.05799865722656 -144.82800292968747 L 36.09700012207031 -144.67599487304685 L 36.14899826049805 -144.52799987792966 L 36.21699905395508 -144.3849945068359 L 36.29800033569336 -144.2510070800781 L 36.39099884033203 -144.12399291992185 L 36.49700164794922 -144.00799560546872 L 36.612998962402344 -143.90199279785153 L 36.7400016784668 -143.80799865722653 L 36.86399841308594 -143.73451232910153 L 36.875 -143.72799682617185 L 37.016998291015625 -143.66000366210935 L 37.165000915527344 -143.60699462890622 L 37.31700134277344 -143.5690002441406 L 37.472999572753906 -143.5460052490234 L 37.630001068115234 -143.5379943847656 L 37.7869987487793 -143.5460052490234 M -7.461999893188477 -144.2510070800781 L -7.36899995803833 -144.12399291992185 L -7.263000011444092 -144.00799560546872 L -7.146999835968018 -143.90199279785153 L -7.019999980926514 -143.80799865722653 L -6.885000228881836 -143.72799682617185 L -6.743000030517578 -143.66000366210935 L -6.59499979019165 -143.60699462890622 L -6.442999839782715 -143.5690002441406 L -6.2870001792907715 -143.5460052490234 L -6.144000053405762 -143.53871154785153 L -6.130000114440918 -143.5379943847656 L -5.9730000495910645 -143.5460052490234 L -5.816999912261963 -143.5690002441406 L -5.664999961853027 -143.60699462890622 L -5.517000198364258 -143.66000366210935 L -5.375 -143.72799682617185 L -5.239999771118164 -143.80799865722653 L -5.11299991607666 -143.90199279785153 L -4.997000217437744 -144.00799560546872 L -4.890999794006348 -144.12399291992185 L -4.797999858856201 -144.2510070800781 L -4.717604637145996 -144.38400268554685 L -4.7170000076293945 -144.3849945068359 L -4.64900016784668 -144.52799987792966 L -4.5970001220703125 -144.67599487304685 L -4.558000087738037 -144.82800292968747 L -4.534999847412109 -144.9839935302734 L -4.5342864990234375 -144.99999999999997 L -4.5279998779296875 -145.14100646972653 L -4.534999847412109 -145.2980041503906 L -4.551218032836914 -145.40800476074216 L -4.558000087738037 -145.45399475097653 L -4.5970001220703125 -145.60600280761716 L -4.64900016784668 -145.75399780273435 L -4.7170000076293945 -145.89599609374997 L -4.797999858856201 -146.03100585937497 L -4.890999794006348 -146.15699768066403 L -4.997000217437744 -146.27400207519528 L -5.11299991607666 -146.38000488281247 L -5.119999885559082 -146.38513183593747 L -5.239999771118164 -146.4730072021484 L -5.375 -146.55400085449216 L -5.517000198364258 -146.6210021972656 L -5.664999961853027 -146.67399597167966 L -5.816999912261963 -146.7129974365234 L -5.9730000495910645 -146.7359924316406 L -6.130000114440918 -146.74299621582028 L -6.144000053405762 -146.74237060546872 L -6.25 -146.7376556396484 L -6.2870001792907715 -146.7359924316406 L -6.442999839782715 -146.7129974365234 L -6.59499979019165 -146.67399597167966 L -6.743000030517578 -146.6210021972656 L -6.885000228881836 -146.55400085449216 L -7.019999980926514 -146.4730072021484 L -7.146999835968018 -146.38000488281247 L -7.263000011444092 -146.27400207519528 L -7.36899995803833 -146.15699768066403 L -7.461999893188477 -146.03100585937497 L -7.543000221252441 -145.89599609374997 L -7.611000061035156 -145.75399780273435 L -7.663000106811523 -145.60600280761716 L -7.702000141143799 -145.45399475097653 L -7.708782196044922 -145.40800476074216 L -7.724999904632568 -145.2980041503906 L -7.732999801635742 -145.14100646972653 L -7.725815296173096 -144.99999999999997 L -7.724999904632568 -144.9839935302734 L -7.702000141143799 -144.82800292968747 L -7.663000106811523 -144.67599487304685 L -7.611000061035156 -144.52799987792966 L -7.543000221252441 -144.3849945068359 L -7.54239559173584 -144.38400268554685 L -7.461999893188477 -144.2510070800781 z" fill="none" stroke="rgb(255,0,0)" stroke-width="0.001mm" />
</svg>